<?xml version="1.0" standalone="no"?>
<!DOCTYPE svg PUBLIC "-//W3C//DTD SVG 20010904//EN"
 "http://www.w3.org/TR/2001/REC-SVG-20010904/DTD/svg10.dtd">
<svg version="1.0" xmlns="http://www.w3.org/2000/svg"
 width="400.000000pt" height="400.000000pt" viewBox="0 0 400.000000 400.000000"
 preserveAspectRatio="xMidYMid meet">

<g transform="translate(0.000000,400.000000) scale(0.100000,-0.100000)"
fill="#000000" stroke="none">
<path d="M1900 3989 c-138 -16 -266 -65 -373 -143 -87 -63 -1428 -1409 -1460
-1466 -14 -25 -34 -72 -44 -105 -17 -56 -18 -116 -18 -950 0 -838 1 -894 19
-958 33 -120 134 -245 242 -300 120 -61 9 -57 1733 -57 1026 0 1591 4 1620 11
154 35 293 165 353 330 l23 64 0 900 c0 843 -1 904 -18 960 -10 33 -30 80 -44
105 -37 65 -1388 1418 -1473 1475 -164 109 -363 157 -560 134z m219 -334 c145
-35 129 -21 854 -749 372 -373 675 -685 683 -703 12 -27 14 -167 14 -883 0
-925 2 -888 -56 -941 -51 -46 -75 -49 -440 -49 l-344 0 0 358 c0 196 -5 388
-10 427 -66 456 -519 778 -972 691 -259 -50 -469 -210 -589 -448 -80 -160 -82
-173 -87 -625 l-3 -403 -342 0 c-194 0 -357 4 -377 10 -41 11 -94 61 -109 103
-8 19 -11 304 -11 879 0 828 1 853 20 892 13 28 236 257 682 702 602 599 669
663 730 693 121 60 234 75 357 46z m33 -2186 c134 -39 257 -151 315 -288 l28
-66 3 -392 3 -393 -501 0 -500 0 0 374 c0 343 2 379 20 437 57 187 215 320
414 349 66 10 135 3 218 -21z"/>
</g>
</svg>
