<svg width="2695" height="345" viewBox="0 0 2695 345" fill="none" xmlns="http://www.w3.org/2000/svg">
<g clip-path="url(#clip0_1_2)">
<rect width="2695" height="345" fill="white"/>
<path d="M67.9167 316.25H258.083C265.288 316.25 272.198 313.221 277.293 307.829C282.388 302.438 285.25 295.125 285.25 287.5V158.125C285.26 156.233 284.918 154.358 284.242 152.606C283.566 150.855 282.57 149.262 281.311 147.919L172.644 32.9188C170.099 30.2414 166.656 28.7386 163.068 28.7386C159.479 28.7386 156.037 30.2414 153.492 32.9188L44.825 147.919C43.5415 149.25 42.5205 150.838 41.821 152.59C41.1215 154.342 40.7575 156.223 40.75 158.125V287.5C40.75 295.125 43.6122 302.438 48.7069 307.829C53.8017 313.221 60.7116 316.25 67.9167 316.25ZM135.833 287.5V215.625H190.167V287.5H135.833ZM67.9167 164.019L163 63.3937L258.083 164.019V287.5H217.333V215.625C217.333 208 214.471 200.687 209.376 195.296C204.282 189.904 197.372 186.875 190.167 186.875H135.833C128.628 186.875 121.718 189.904 116.624 195.296C111.529 200.687 108.667 208 108.667 215.625V287.5H67.9167V164.019Z" fill="black"/>
<path d="M373.688 236.832C373.688 240.843 372.749 244.299 370.872 247.2C369.08 250.016 366.093 252.619 361.912 255.008C359.096 256.715 355.811 257.995 352.056 258.848C348.301 259.701 344.504 260.128 340.664 260.128C336.739 260.128 331.875 258.848 326.072 256.288C321.891 254.24 318.563 251.808 316.088 248.992C313.699 246.176 312.504 243.104 312.504 239.776C312.504 237.472 313.016 235.808 314.04 234.784C315.064 233.675 316.728 233.12 319.032 233.12C320.227 233.12 321.464 233.632 322.744 234.656C324.024 235.595 324.792 236.533 325.048 237.472C326.243 240.971 328.333 243.659 331.32 245.536C334.307 247.328 338.019 248.224 342.456 248.224C347.576 248.224 351.843 247.285 355.256 245.408C358.755 243.531 360.504 241.013 360.504 237.856C360.504 234.784 358.627 232.053 354.872 229.664C351.117 227.275 347.277 225.611 343.352 224.672C337.72 223.136 332.728 221.301 328.376 219.168C323.853 216.949 320.483 214.219 318.264 210.976C316.045 207.733 314.936 204.32 314.936 200.736C314.936 197.408 316.088 194.037 318.392 190.624C320.696 187.125 323.427 184.608 326.584 183.072C328.291 182.219 331.192 181.323 335.288 180.384C339.469 179.36 342.499 178.848 344.376 178.848C346.851 178.848 349.581 179.147 352.568 179.744C355.555 180.341 357.987 181.195 359.864 182.304C363.619 184.437 366.392 186.357 368.184 188.064C369.976 189.771 370.872 191.904 370.872 194.464C370.872 196 370.275 197.365 369.08 198.56C367.971 199.755 366.008 200.352 363.192 200.352C362.509 200.352 361.827 200.053 361.144 199.456C360.461 198.859 359.608 197.963 358.584 196.768C357.219 194.976 355.896 193.781 354.616 193.184C353.336 192.757 351.459 192.288 348.984 191.776C346.595 191.264 344.461 191.008 342.584 191.008C340.536 191.008 338.403 191.435 336.184 192.288C333.965 193.141 332.088 194.379 330.552 196C329.101 197.536 328.376 199.328 328.376 201.376C328.376 203.083 329.144 204.576 330.68 205.856C332.301 207.051 334.221 208.032 336.44 208.8C339 209.824 341.773 210.72 344.76 211.488C348.685 212.683 351.885 213.792 354.36 214.816C356.92 215.755 359.395 216.949 361.784 218.4C365.965 220.875 368.995 223.435 370.872 226.08C372.749 228.64 373.688 232.224 373.688 236.832ZM392.187 177.824C395.174 178.08 397.776 178.891 399.995 180.256C402.214 181.536 403.323 183.499 403.323 186.144C403.323 188.107 402.384 189.685 400.507 190.88C398.715 191.989 396.539 192.544 393.979 192.544C391.504 192.544 389.798 191.904 388.859 190.624C387.92 189.344 387.451 188.021 387.451 186.656C387.451 184.096 387.707 181.963 388.219 180.256C388.816 178.549 390.139 177.739 392.187 177.824ZM402.427 234.528V238.24C402.427 241.568 402.512 244.725 402.683 247.712C402.939 250.613 403.238 253.557 403.579 256.544C403.494 257.397 402.854 258.293 401.659 259.232C400.464 260.085 399.398 260.512 398.459 260.512C396.838 260.512 395.174 260.213 393.467 259.616C391.846 258.933 390.864 258.123 390.523 257.184C390.011 254.453 389.755 252.021 389.755 249.888C389.755 242.891 389.542 235.04 389.115 226.336C388.774 218.656 388.603 213.28 388.603 210.208C388.603 208.672 389.371 207.349 390.907 206.24C392.443 205.131 394.064 204.576 395.771 204.576C398.246 204.576 399.952 205.131 400.891 206.24C401.915 207.349 402.427 209.099 402.427 211.488V234.528ZM454.249 231.2C454.932 231.627 456.254 232.437 458.217 233.632C460.265 234.741 461.63 236.064 462.313 237.6C462.996 239.136 463.337 241.269 463.337 244C463.337 247.072 462.441 249.803 460.649 252.192C458.857 254.496 456.553 256.288 453.737 257.568C451.689 258.507 449.172 259.232 446.185 259.744C443.284 260.256 440.98 260.512 439.273 260.512C437.566 260.512 435.348 260.256 432.617 259.744C429.972 259.232 428.137 258.763 427.113 258.336C424.468 256.8 422.164 254.923 420.201 252.704C418.324 250.485 417.385 248.224 417.385 245.92C417.385 244.213 417.94 242.891 419.049 241.952C420.158 240.928 421.609 240.416 423.401 240.416C424.254 240.416 425.15 240.757 426.089 241.44C427.028 242.037 427.668 242.677 428.009 243.36C428.948 245.579 430.526 247.243 432.745 248.352C434.964 249.461 437.225 250.016 439.529 250.016C442.516 250.016 445.289 249.547 447.849 248.608C450.409 247.584 451.689 246.219 451.689 244.512C451.689 243.744 451.476 243.147 451.049 242.72C450.708 242.208 450.196 241.696 449.513 241.184C448.318 240.331 446.526 239.648 444.137 239.136C441.748 238.539 440.212 238.155 439.529 237.984C436.03 237.216 432.617 236.064 429.289 234.528C425.961 232.907 423.316 230.987 421.353 228.768C419.39 226.549 418.409 223.691 418.409 220.192C418.409 217.888 419.262 215.499 420.969 213.024C422.676 210.464 424.596 208.672 426.729 207.648C428.265 207.051 430.825 206.411 434.409 205.728C438.078 205.045 440.553 204.704 441.833 204.704C443.796 204.704 445.929 204.917 448.233 205.344C450.537 205.685 452.286 206.283 453.481 207.136C455.785 208.501 457.662 209.952 459.113 211.488C460.564 212.939 461.289 214.603 461.289 216.48C461.289 217.419 461.076 218.443 460.649 219.552C460.222 220.576 459.71 221.216 459.113 221.472C457.833 222.069 456.34 222.368 454.633 222.368C453.865 222.368 453.225 222.155 452.713 221.728C452.286 221.301 451.689 220.619 450.921 219.68C449.982 218.229 449.086 217.376 448.233 217.12C447.209 216.864 445.716 216.565 443.753 216.224C441.79 215.797 440.468 215.584 439.785 215.584C437.822 215.584 435.774 216.139 433.641 217.248C431.593 218.357 430.569 219.637 430.569 221.088C430.569 221.856 430.868 222.453 431.465 222.88C432.148 223.307 432.83 223.691 433.513 224.032C434.281 224.373 434.793 224.587 435.049 224.672C436.841 225.525 438.804 226.251 440.937 226.848C443.156 227.445 444.521 227.829 445.033 228C449.641 229.109 452.713 230.176 454.249 231.2ZM475.409 215.456C474.214 215.285 473.233 214.816 472.465 214.048C471.782 213.195 471.441 212.171 471.441 210.976C471.441 209.44 472.038 208.16 473.233 207.136C473.489 206.88 473.916 206.667 474.513 206.496C475.11 206.24 475.58 206.027 475.921 205.856C477.798 205.259 478.993 204.789 479.505 204.448C481.468 203.253 482.79 201.291 483.473 198.56C484.156 195.317 484.582 193.099 484.753 191.904C484.924 190.027 485.521 188.619 486.545 187.68C487.654 186.656 489.02 186.144 490.641 186.144C492.774 186.144 494.268 186.699 495.121 187.808C495.974 188.917 496.401 190.965 496.401 193.952C496.401 197.877 495.462 201.589 493.585 205.088C494.78 205.088 496.742 205.003 499.473 204.832C503.569 204.661 506.428 204.576 508.049 204.576C509.5 204.576 510.737 204.96 511.761 205.728C512.87 206.411 513.425 207.435 513.425 208.8C513.425 212.043 511.932 213.963 508.945 214.56C506.214 215.328 501.265 215.797 494.097 215.968C493.5 224.331 493.201 230.944 493.201 235.808C493.201 238.795 493.329 240.928 493.585 242.208C494.097 244.853 494.95 246.816 496.145 248.096C497.425 249.291 499.302 249.888 501.777 249.888C502.972 249.888 504.764 249.589 507.153 248.992C508.604 248.565 509.756 248.352 510.609 248.352C511.718 248.352 512.572 248.736 513.169 249.504C513.766 250.272 514.065 251.296 514.065 252.576C514.065 254.88 512.572 256.8 509.585 258.336C506.598 259.787 503.057 260.512 498.961 260.512C496.401 260.512 493.884 259.915 491.409 258.72C488.934 257.44 486.844 255.904 485.137 254.112C484.796 253.941 484.284 253.003 483.601 251.296C483.004 249.589 482.406 247.712 481.809 245.664C481.553 244.64 481.425 242.165 481.425 238.24C481.425 234.485 481.681 228 482.193 218.784L482.321 215.968C481.724 215.968 480.614 215.925 478.993 215.84C477.372 215.669 476.177 215.541 475.409 215.456ZM522.004 230.688C522.004 225.483 523.156 221.173 525.46 217.76C527.764 214.261 530.964 210.976 535.06 207.904C536.255 207.051 538.26 206.325 541.076 205.728C543.892 205.045 546.367 204.704 548.5 204.704C551.06 204.704 553.748 205.259 556.564 206.368C559.465 207.392 561.812 208.587 563.604 209.952C566.761 212.256 568.937 214.944 570.132 218.016C571.327 221.003 571.924 224.587 571.924 228.768C571.924 230.56 570.9 232.309 568.852 234.016C566.889 235.637 564.756 236.448 562.452 236.448L557.588 236.32C555.113 236.32 551.572 236.405 546.964 236.576L544.276 236.704C542.399 236.875 540.991 236.96 540.052 236.96C538.687 236.96 536.809 236.789 534.42 236.448C534.761 240.459 536.255 243.616 538.9 245.92C541.545 248.139 544.404 249.248 547.476 249.248C552.852 249.248 556.607 248.181 558.74 246.048C560.532 244.768 561.727 243.957 562.324 243.616C562.921 243.275 563.86 243.104 565.14 243.104C566.505 243.104 567.7 243.744 568.724 245.024C569.748 246.304 570.26 247.584 570.26 248.864C570.26 250.315 569.364 251.808 567.572 253.344C565.865 254.795 563.519 256.331 560.532 257.952C558.911 258.635 556.692 259.232 553.876 259.744C551.06 260.256 548.713 260.512 546.836 260.512C543.849 260.512 540.521 259.659 536.852 257.952C533.183 256.16 530.452 254.197 528.66 252.064C526.868 249.931 525.289 246.901 523.924 242.976C522.644 239.051 522.004 234.955 522.004 230.688ZM547.476 227.232C553.535 227.232 557.972 227.019 560.788 226.592C560.617 224.117 559.849 222.112 558.484 220.576C557.119 218.955 555.241 217.589 552.852 216.48C552.084 216.139 551.401 215.883 550.804 215.712C550.207 215.541 549.524 215.456 548.756 215.456C544.831 215.456 541.503 216.523 538.772 218.656C536.127 220.789 534.548 223.52 534.036 226.848C538.303 227.104 542.783 227.232 547.476 227.232ZM661.474 237.472L661.986 227.616C661.986 224.032 661.559 221.387 660.706 219.68C659.938 217.973 658.146 217.12 655.33 217.12C649.954 217.12 645.901 220.149 643.17 226.208C640.439 232.181 639.074 240.928 639.074 252.448C639.074 252.96 639.074 254.027 639.074 255.648C639.159 257.184 638.903 258.379 638.306 259.232C637.794 260.085 636.855 260.512 635.49 260.512C632.077 260.512 629.773 259.573 628.578 257.696C627.383 255.819 626.786 253.045 626.786 249.376C626.786 247.499 627.042 243.659 627.554 237.856C627.981 233.76 628.194 230.901 628.194 229.28C628.194 225.013 627.554 221.899 626.274 219.936C624.994 217.973 622.775 216.992 619.618 216.992C615.949 216.992 612.919 218.827 610.53 222.496C608.141 226.165 606.391 230.731 605.282 236.192C604.173 241.568 603.618 246.901 603.618 252.192C603.618 254.667 603.191 256.672 602.338 258.208C601.57 259.744 600.077 260.512 597.858 260.512C596.237 260.512 594.615 260.085 592.994 259.232C591.373 258.293 590.562 257.056 590.562 255.52C590.562 253.899 590.733 252.277 591.074 250.656C591.501 248.011 591.842 244.128 592.098 239.008C592.354 233.888 592.482 229.067 592.482 224.544C592.482 222.496 591.97 220.533 590.946 218.656C590.007 216.693 588.855 215.712 587.49 215.712C587.149 215.712 586.509 215.883 585.57 216.224C584.717 216.565 584.077 216.736 583.65 216.736C582.541 216.736 581.517 216.224 580.578 215.2C579.725 214.176 579.298 213.323 579.298 212.64C579.298 210.507 580.322 208.715 582.37 207.264C584.503 205.728 586.722 204.96 589.026 204.96C592.183 204.96 594.914 206.027 597.218 208.16C599.607 210.293 601.399 213.152 602.594 216.736C604.642 213.067 607.031 210.208 609.762 208.16C612.578 206.027 615.991 204.96 620.002 204.96C627.341 204.96 632.674 208.245 636.002 214.816C637.965 211.659 640.994 209.227 645.09 207.52C649.271 205.813 653.367 204.96 657.378 204.96C660.279 204.96 663.053 205.856 665.698 207.648C668.343 209.355 670.434 211.659 671.97 214.56C673.591 217.376 674.402 220.32 674.402 223.392C674.402 225.355 674.189 229.664 673.762 236.32C673.677 237.429 673.591 238.667 673.506 240.032C673.421 241.312 673.378 242.677 673.378 244.128C673.378 245.92 673.805 247.371 674.658 248.48C675.597 249.589 676.791 250.272 678.242 250.528C681.143 251.211 682.594 252.405 682.594 254.112C682.594 256.075 681.698 257.653 679.906 258.848C678.114 259.957 676.109 260.512 673.89 260.512C669.709 260.512 666.509 259.317 664.29 256.928C662.157 254.453 661.09 250.912 661.09 246.304L661.474 237.472ZM743.574 189.344C743.318 194.805 743.19 200.053 743.19 205.088C743.19 210.293 743.531 217.931 744.214 228C744.299 229.536 744.47 232.651 744.726 237.344C744.982 241.952 745.11 246.176 745.11 250.016C745.963 249.931 746.859 249.803 747.798 249.632C748.822 249.461 749.59 249.376 750.102 249.376C751.979 249.376 753.473 249.845 754.582 250.784C755.691 251.723 756.246 253.173 756.246 255.136C756.246 256.416 755.734 257.397 754.71 258.08C753.686 258.763 751.894 259.275 749.334 259.616C746.859 259.872 743.233 260 738.454 260C733.163 260 729.195 259.829 726.55 259.488C723.905 259.147 722.07 258.507 721.046 257.568C720.022 256.544 719.51 255.051 719.51 253.088C719.51 251.637 719.979 250.656 720.918 250.144C721.857 249.632 723.179 249.376 724.886 249.376L727.574 249.504L731.798 249.76L731.158 234.656C730.646 226.464 730.39 218.955 730.39 212.128C730.39 208.459 730.518 203.424 730.774 197.024L731.03 189.984C728.129 190.155 725.867 190.24 724.246 190.24C722.369 190.24 721.089 189.899 720.406 189.216C719.809 188.533 719.51 187.125 719.51 184.992C719.51 182.603 721.131 181.067 724.374 180.384C727.702 179.701 732.737 179.36 739.478 179.36C744.683 179.36 748.566 179.531 751.126 179.872C753.771 180.213 755.094 180.981 755.094 182.176C755.094 185.077 754.454 186.997 753.174 187.936C751.979 188.789 749.633 189.216 746.134 189.216L743.574 189.344ZM826.652 250.144C827.079 250.315 827.761 250.528 828.7 250.784C829.639 251.04 830.321 251.296 830.748 251.552C831.175 251.808 831.388 252.192 831.388 252.704C831.473 254.752 830.705 256.459 829.084 257.824C827.548 259.104 825.713 259.744 823.58 259.744C820.252 259.744 817.649 258.848 815.772 257.056C813.895 255.264 812.529 252.533 811.676 248.864C811.335 247.413 811.164 245.408 811.164 242.848C811.164 241.397 811.249 239.051 811.42 235.808C811.591 232.395 811.676 229.664 811.676 227.616C811.676 224.629 810.823 222.027 809.116 219.808C807.495 217.504 805.191 216.352 802.204 216.352C800.412 216.352 798.535 216.907 796.572 218.016C794.609 219.04 793.244 220.32 792.476 221.856C791.196 224.331 790.3 227.019 789.788 229.92C788.849 235.04 788.38 240.373 788.38 245.92C788.38 248.565 788.423 250.613 788.508 252.064C788.508 252.405 788.508 253.088 788.508 254.112C788.593 255.051 788.508 255.947 788.252 256.8C788.081 257.568 787.74 258.293 787.228 258.976C786.801 259.403 786.119 259.744 785.18 260C784.327 260.341 783.516 260.512 782.748 260.512C781.553 260.512 780.06 260 778.268 258.976C776.476 257.952 775.452 256.8 775.196 255.52L775.068 253.344C775.068 252.576 775.153 251.68 775.324 250.656C776.348 244.683 776.86 239.477 776.86 235.04C776.86 233.077 776.817 231.541 776.732 230.432L776.604 224.416C776.604 222.368 776.092 220.405 775.068 218.528C774.044 216.565 772.849 215.584 771.484 215.584C771.057 215.584 770.46 215.755 769.692 216.096C768.924 216.352 768.284 216.48 767.772 216.48C766.919 216.48 765.98 216.053 764.956 215.2C764.017 214.347 763.548 213.451 763.548 212.512C763.548 210.72 764.145 209.269 765.34 208.16C766.62 207.136 767.857 206.325 769.052 205.728C770.332 205.131 771.783 204.832 773.404 204.832C774.769 204.832 775.879 204.96 776.732 205.216C777.585 205.472 778.737 206.027 780.188 206.88C780.956 207.307 781.852 208.245 782.876 209.696C783.9 211.147 784.753 213.195 785.436 215.84C787.655 211.744 790.385 208.885 793.628 207.264C796.956 205.557 801.18 204.704 806.3 204.704C808.263 204.704 810.353 205.344 812.572 206.624C814.876 207.904 816.839 209.397 818.46 211.104C819.996 212.981 821.276 215.328 822.3 218.144C823.324 220.875 823.836 223.349 823.836 225.568C823.836 226.848 823.751 228.939 823.58 231.84C823.324 234.144 823.196 236.576 823.196 239.136C823.196 245.109 824.348 248.779 826.652 250.144ZM867.027 184.608C864.467 184.608 862.888 186.741 862.291 191.008C861.694 196.811 861.395 201.205 861.395 204.192C863.102 204.363 864.894 204.448 866.771 204.448C867.966 204.448 869.502 204.363 871.379 204.192L874.707 204.064C876.414 204.064 877.694 204.363 878.547 204.96C879.4 205.557 879.827 206.539 879.827 207.904C879.827 209.781 879.187 211.403 877.907 212.768C876.712 214.048 875.304 214.688 873.683 214.688C867.539 214.688 863.4 214.987 861.267 215.584C861.267 220.789 861.523 228.171 862.035 237.728L862.291 244L862.803 253.984C862.974 256.459 862.718 258.208 862.035 259.232C861.438 260.171 860.115 260.64 858.067 260.64C854.312 260.64 851.88 258.379 850.771 253.856C850.088 250.528 849.534 245.877 849.107 239.904C848.68 233.931 848.467 228.597 848.467 223.904C848.467 221.429 848.595 218.613 848.851 215.456C848.68 215.371 848.211 215.328 847.443 215.328C846.675 215.328 846.12 215.371 845.779 215.456C843.219 215.627 841.342 215.712 840.147 215.712C839.379 215.712 838.611 215.2 837.843 214.176C837.075 213.067 836.691 211.744 836.691 210.208C836.691 209.355 836.99 208.587 837.587 207.904C838.184 207.136 838.91 206.581 839.763 206.24C841.043 205.557 842.878 205.216 845.267 205.216L849.107 205.344C849.107 193.227 850.472 184.821 853.203 180.128C855.763 175.691 859.987 173.472 865.875 173.472C869.288 173.472 872.403 174.325 875.219 176.032C876.414 176.8 877.31 177.739 877.907 178.848C878.59 179.957 878.931 181.024 878.931 182.048C878.931 183.328 878.419 184.651 877.395 186.016C876.456 187.381 875.006 188.064 873.043 188.064C872.275 188.064 871.294 187.467 870.099 186.272C869.672 185.845 869.203 185.461 868.691 185.12C868.179 184.779 867.624 184.608 867.027 184.608ZM939.341 218.912C940.024 220.107 940.578 221.856 941.005 224.16C941.432 226.379 941.645 228.384 941.645 230.176C941.645 232.565 941.261 235.552 940.493 239.136C939.725 242.635 939.085 244.981 938.573 246.176C933.965 255.733 925.09 260.512 911.949 260.512C907.768 260.512 903.672 259.147 899.661 256.416C895.65 253.6 892.792 250.315 891.085 246.56L890.189 244C890.104 243.659 889.634 242.379 888.781 240.16C888.013 237.856 887.629 236.107 887.629 234.912C887.629 231.413 888.482 227.36 890.189 222.752C891.896 218.144 893.858 214.475 896.077 211.744C897.528 209.781 900.301 208.117 904.397 206.752C908.493 205.301 912.12 204.576 915.277 204.576C921.165 204.576 925.901 205.685 929.485 207.904C933.154 210.123 936.44 213.792 939.341 218.912ZM927.565 239.52C927.906 238.923 928.205 237.856 928.461 236.32C928.717 234.784 928.845 232.992 928.845 230.944C928.845 228.469 928.376 226.037 927.437 223.648C926.584 221.259 925.304 219.211 923.597 217.504C923.512 217.333 923.213 217.077 922.701 216.736C922.189 216.309 921.378 215.925 920.269 215.584C919.16 215.157 917.752 214.944 916.045 214.944C912.717 214.944 909.901 215.925 907.597 217.888C905.293 219.851 903.544 222.283 902.349 225.184C901.24 228.085 900.685 230.944 900.685 233.76C900.685 234.528 900.941 236.107 901.453 238.496C901.965 240.885 902.349 242.421 902.605 243.104C903.288 244.299 904.61 245.707 906.573 247.328C908.536 248.864 910.754 249.632 913.229 249.632C917.069 249.632 920.056 248.736 922.189 246.944C924.408 245.152 926.2 242.677 927.565 239.52ZM971.701 254.88C971.53 256.331 970.933 257.611 969.909 258.72C968.885 259.829 967.562 260.384 965.941 260.384C963.381 260.384 961.504 259.915 960.309 258.976C959.114 257.952 958.517 256.117 958.517 253.472C958.517 249.888 958.73 245.963 959.157 241.696C959.498 236.747 959.669 232.949 959.669 230.304C959.669 228.939 959.584 227.232 959.413 225.184C959.242 223.307 959.157 221.899 959.157 220.96C958.901 219.509 958.304 218.357 957.365 217.504C956.512 216.651 955.146 215.925 953.269 215.328C952.501 214.987 951.861 214.432 951.349 213.664C950.837 212.811 950.581 212.043 950.581 211.36C950.581 209.397 951.349 207.904 952.885 206.88C954.421 205.856 956.298 205.344 958.517 205.344C960.992 205.344 963.125 206.197 964.917 207.904C966.709 209.611 968.074 211.744 969.013 214.304C970.976 211.488 973.365 209.227 976.181 207.52C979.082 205.813 981.898 204.96 984.629 204.96C988.128 204.96 991.072 205.557 993.461 206.752C995.936 207.861 997.173 209.824 997.173 212.64C997.173 214.261 996.448 215.968 994.997 217.76C993.632 219.467 992.224 220.32 990.773 220.32C989.664 220.32 988.341 219.808 986.805 218.784C986.208 218.357 985.525 218.016 984.757 217.76C984.074 217.419 983.349 217.248 982.581 217.248C981.216 217.248 979.936 217.461 978.741 217.888C977.546 218.315 976.736 218.827 976.309 219.424C974.944 221.557 973.92 223.477 973.237 225.184C972.64 226.891 972.341 228.725 972.341 230.688C972.341 232.139 972.298 233.291 972.213 234.144L972.085 241.44L972.213 246.304C972.213 249.888 972.042 252.747 971.701 254.88ZM1085.55 255.52C1084.27 253.131 1083.46 250.485 1083.12 247.584C1082.78 244.597 1082.61 240.501 1082.61 235.296C1082.61 230.347 1081.93 226.037 1080.56 222.368C1079.19 218.699 1076.38 216.864 1072.11 216.864C1070.49 216.864 1068.87 217.376 1067.25 218.4C1065.71 219.339 1064.56 220.533 1063.79 221.984C1062.6 224.288 1061.79 226.805 1061.36 229.536C1060.93 232.181 1060.72 235.253 1060.72 238.752C1060.72 240.971 1060.85 243.232 1061.1 245.536C1061.1 246.219 1061.15 247.328 1061.23 248.864C1061.4 250.315 1061.49 251.637 1061.49 252.832C1061.49 257.952 1059.7 260.512 1056.11 260.512C1051.42 260.512 1048.94 258.037 1048.69 253.088C1048.69 249.589 1048.73 247.712 1048.82 247.456V241.952C1048.82 238.88 1048.69 235.893 1048.43 232.992C1048.18 230.091 1047.88 227.915 1047.54 226.464C1046.77 223.648 1045.74 221.472 1044.46 219.936C1043.27 218.4 1041.35 217.632 1038.7 217.632C1034.95 217.632 1031.92 219.253 1029.62 222.496C1027.99 225.056 1026.93 228.171 1026.42 231.84C1025.9 236.533 1025.52 240.245 1025.26 242.976C1025.09 245.621 1025.01 248.693 1025.01 252.192C1025.01 254.667 1024.58 256.672 1023.73 258.208C1022.96 259.744 1021.47 260.512 1019.25 260.512C1017.63 260.512 1015.92 260.085 1014.13 259.232C1012.42 258.293 1011.57 257.056 1011.57 255.52C1011.57 253.899 1011.74 252.277 1012.08 250.656C1012.85 245.792 1013.23 237.088 1013.23 224.544C1013.23 222.496 1012.72 220.533 1011.7 218.656C1010.76 216.693 1009.61 215.712 1008.24 215.712C1007.9 215.712 1007.26 215.883 1006.32 216.224C1005.47 216.565 1004.83 216.736 1004.4 216.736C1003.29 216.736 1002.27 216.224 1001.33 215.2C1000.47 214.176 1000.05 213.323 1000.05 212.64C1000.05 210.507 1001.07 208.715 1003.12 207.264C1005.25 205.728 1007.47 204.96 1009.78 204.96C1012.93 204.96 1015.62 205.941 1017.84 207.904C1020.06 209.867 1021.77 212.597 1022.96 216.096C1024.92 212.683 1027.57 209.952 1030.9 207.904C1034.22 205.771 1037.94 204.704 1042.03 204.704C1044.59 204.704 1046.64 205.045 1048.18 205.728C1049.8 206.325 1051.12 207.221 1052.14 208.416C1053.17 209.525 1054.49 211.232 1056.11 213.536C1058.25 210.805 1060.98 208.672 1064.3 207.136C1067.72 205.6 1071.22 204.832 1074.8 204.832C1079.07 204.832 1082.91 206.581 1086.32 210.08C1089.73 213.493 1092.04 217.461 1093.23 221.984C1093.83 224.288 1094.13 228.725 1094.13 235.296L1094.64 242.72C1095.07 247.157 1096.52 249.845 1098.99 250.784C1101.89 251.637 1103.34 252.533 1103.34 253.472C1103.34 255.52 1102.83 257.013 1101.81 257.952C1101.04 258.464 1099.97 259.019 1098.61 259.616C1097.24 260.213 1096.18 260.512 1095.41 260.512C1090.8 260.512 1087.51 258.848 1085.55 255.52ZM1170.65 253.856C1170.65 255.733 1169.63 257.312 1167.58 258.592C1165.61 259.872 1163.78 260.512 1162.07 260.512C1158.83 260.512 1156.23 260.128 1154.27 259.36C1152.39 258.507 1150.64 256.971 1149.02 254.752C1146.8 256.715 1143.77 258.208 1139.93 259.232C1136.09 260.171 1132.55 260.64 1129.31 260.64C1124.01 260.64 1119.66 259.232 1116.25 256.416C1112.84 253.515 1111.13 249.291 1111.13 243.744C1111.13 241.355 1111.77 239.179 1113.05 237.216C1114.33 235.168 1116.08 233.376 1118.3 231.84C1120.77 230.219 1123.59 228.981 1126.75 228.128C1129.9 227.189 1133.19 226.72 1136.6 226.72C1138.39 226.72 1140.53 227.061 1143 227.744C1145.48 228.427 1147.4 229.152 1148.76 229.92V227.872C1148.76 223.264 1147.65 220.107 1145.43 218.4C1143.21 216.608 1139.63 215.712 1134.68 215.712C1133.23 215.712 1131.78 216.011 1130.33 216.608C1128.96 217.205 1127.39 218.016 1125.59 219.04C1123.2 220.32 1120.94 220.96 1118.81 220.96C1118.04 220.96 1117.32 220.448 1116.63 219.424C1115.95 218.315 1115.61 217.333 1115.61 216.48C1115.61 214.005 1116.76 211.872 1119.07 210.08C1121.45 208.288 1124.27 206.965 1127.51 206.112C1130.76 205.173 1133.66 204.704 1136.22 204.704C1138.78 204.704 1141.72 205.216 1145.05 206.24C1148.38 207.179 1151.11 208.501 1153.24 210.208C1155.8 212.427 1157.76 215.029 1159.13 218.016C1160.58 220.917 1161.31 224.117 1161.31 227.616C1161.31 228.725 1161.22 230.389 1161.05 232.608C1160.88 234.997 1160.79 237.045 1160.79 238.752C1160.79 239.52 1160.71 240.672 1160.54 242.208C1160.37 244.085 1160.28 245.579 1160.28 246.688C1160.28 247.712 1160.67 248.608 1161.43 249.376C1162.2 250.059 1163.1 250.4 1164.12 250.4L1167.71 250.272C1168.64 250.272 1169.37 250.613 1169.88 251.296C1170.39 251.979 1170.65 252.832 1170.65 253.856ZM1129.43 250.528C1133.1 250.528 1136.17 250.144 1138.65 249.376C1141.12 248.608 1144.11 247.2 1147.61 245.152C1147.95 243.701 1148.16 241.781 1148.25 239.392C1143.56 237.173 1139.67 236.064 1136.6 236.064C1133.1 236.064 1129.99 236.704 1127.26 237.984C1124.53 239.264 1123.16 241.525 1123.16 244.768C1123.16 246.389 1123.84 247.755 1125.21 248.864C1126.57 249.973 1127.98 250.528 1129.43 250.528ZM1215 232.352C1215.68 232.779 1217 233.589 1218.97 234.784C1221.02 235.893 1222.38 237.216 1223.06 238.752C1223.75 240.288 1224.09 242.421 1224.09 245.152C1224.09 248.224 1223.19 250.955 1221.4 253.344C1219.61 255.648 1217.3 257.44 1214.49 258.72C1212.52 259.573 1210.39 260.085 1208.09 260.256C1205.87 260.427 1203.18 260.512 1200.02 260.512C1198.32 260.512 1196.1 260.256 1193.37 259.744C1190.72 259.232 1188.89 258.763 1187.86 258.336C1185.13 256.8 1182.83 255.008 1180.95 252.96C1179.07 250.912 1178.14 248.821 1178.14 246.688C1178.14 244.981 1178.69 243.616 1179.8 242.592C1180.91 241.568 1182.36 241.056 1184.15 241.056C1185.09 241.056 1185.99 241.312 1186.84 241.824C1187.78 242.251 1188.42 242.763 1188.76 243.36C1189.7 245.579 1191.28 247.243 1193.5 248.352C1195.71 249.461 1197.98 250.016 1200.28 250.016C1208.39 250.016 1212.44 248.565 1212.44 245.664C1212.44 244.896 1212.23 244.299 1211.8 243.872C1211.46 243.36 1210.95 242.848 1210.26 242.336C1209.15 241.568 1207.58 240.757 1205.53 239.904C1203.56 239.051 1201.82 238.411 1200.28 237.984C1196.78 237.216 1193.37 236.064 1190.04 234.528C1186.97 232.992 1184.45 230.987 1182.49 228.512C1180.52 225.952 1179.54 222.837 1179.54 219.168C1179.54 216.949 1180.35 214.773 1181.98 212.64C1183.68 210.421 1185.64 208.757 1187.86 207.648C1189.4 207.051 1191.92 206.411 1195.42 205.728C1198.91 205.045 1201.3 204.704 1202.58 204.704C1204.55 204.704 1206.68 204.917 1208.98 205.344C1211.29 205.685 1213.04 206.283 1214.23 207.136C1216.54 208.501 1218.41 209.952 1219.86 211.488C1221.31 212.939 1222.04 214.603 1222.04 216.48C1222.04 217.419 1221.83 218.443 1221.4 219.552C1220.97 220.576 1220.46 221.216 1219.86 221.472C1218.58 222.069 1217.09 222.368 1215.38 222.368C1214.62 222.368 1213.98 222.155 1213.46 221.728C1213.04 221.301 1212.44 220.619 1211.67 219.68C1210.73 218.229 1209.84 217.376 1208.98 217.12C1207.96 216.864 1206.47 216.565 1204.5 216.224C1202.54 215.797 1201.22 215.584 1200.54 215.584C1198.4 215.584 1196.35 216.011 1194.39 216.864C1192.51 217.717 1191.58 218.869 1191.58 220.32C1191.58 222.027 1192.98 223.477 1195.8 224.672C1197.59 225.525 1199.55 226.251 1201.69 226.848C1203.91 227.445 1205.27 227.829 1205.78 228C1206.98 228.256 1208.51 228.853 1210.39 229.792C1212.35 230.731 1213.89 231.584 1215 232.352ZM1242.69 177.824C1245.67 178.08 1248.28 178.891 1250.5 180.256C1252.71 181.536 1253.82 183.499 1253.82 186.144C1253.82 188.107 1252.88 189.685 1251.01 190.88C1249.22 191.989 1247.04 192.544 1244.48 192.544C1242 192.544 1240.3 191.904 1239.36 190.624C1238.42 189.344 1237.95 188.021 1237.95 186.656C1237.95 184.096 1238.21 181.963 1238.72 180.256C1239.32 178.549 1240.64 177.739 1242.69 177.824ZM1252.93 234.528V238.24C1252.93 241.568 1253.01 244.725 1253.18 247.712C1253.44 250.613 1253.74 253.557 1254.08 256.544C1254.08 257.568 1253.48 258.507 1252.29 259.36C1251.09 260.128 1249.98 260.512 1248.96 260.512C1247.34 260.512 1245.67 260.213 1243.97 259.616C1242.35 258.933 1241.36 258.123 1241.02 257.184C1240.51 254.453 1240.26 252.021 1240.26 249.888C1240.26 242.891 1240.04 235.04 1239.62 226.336C1239.27 218.656 1239.1 213.28 1239.1 210.208C1239.1 208.672 1239.87 207.349 1241.41 206.24C1242.94 205.131 1244.56 204.576 1246.27 204.576C1248.75 204.576 1250.45 205.131 1251.39 206.24C1252.42 207.349 1252.93 209.099 1252.93 211.488V234.528ZM1331.71 231.072C1328.38 231.072 1325.56 230.987 1323.26 230.816C1321.04 230.56 1318.1 230.176 1314.43 229.664L1314.3 243.104C1314.21 245.408 1314.17 248.693 1314.17 252.96C1314.17 255.179 1313.53 256.928 1312.25 258.208C1311.06 259.403 1309.69 260 1308.16 260C1305.34 260 1303.25 259.659 1301.88 258.976C1300.52 258.208 1299.84 256.885 1299.84 255.008C1299.84 252.533 1300.05 249.035 1300.48 244.512C1301.41 234.784 1301.88 224.8 1301.88 214.56C1301.88 205.003 1301.58 196 1300.99 187.552C1301.07 186.357 1301.67 184.992 1302.78 183.456C1303.97 181.92 1305.47 181.067 1307.26 180.896C1309.22 180.896 1312.34 180.555 1316.6 179.872C1321.04 179.189 1324.41 178.848 1326.72 178.848C1333.71 178.848 1339.13 179.531 1342.97 180.896C1346.9 182.261 1350.82 184.523 1354.75 187.68C1359.01 194.336 1361.15 199.029 1361.15 201.76C1361.15 207.477 1360 212.555 1357.69 216.992C1355.39 221.429 1352.02 224.885 1347.58 227.36C1343.14 229.835 1337.85 231.072 1331.71 231.072ZM1328.76 189.728C1326.03 189.728 1323.64 189.899 1321.6 190.24C1319.63 190.496 1317.24 190.965 1314.43 191.648C1314.77 199.499 1314.94 205.216 1314.94 208.8C1314.94 212.469 1314.81 215.541 1314.56 218.016C1318.22 218.784 1321.13 219.296 1323.26 219.552C1325.39 219.723 1327.78 219.808 1330.43 219.808C1336.74 219.808 1341.18 218.187 1343.74 214.944C1346.38 211.616 1347.71 207.776 1347.71 203.424C1347.71 202.144 1347.32 200.565 1346.56 198.688C1345.79 196.811 1345.1 195.573 1344.51 194.976C1342.2 192.928 1339.94 191.563 1337.72 190.88C1335.59 190.112 1332.6 189.728 1328.76 189.728ZM1377.06 177.824C1380.04 178.08 1382.6 178.891 1384.74 180.256C1386.95 181.536 1388.06 183.499 1388.06 186.144C1388.06 188.107 1387.17 189.685 1385.38 190.88C1383.58 191.989 1381.37 192.544 1378.72 192.544C1376.25 192.544 1374.54 191.904 1373.6 190.624C1372.66 189.344 1372.19 188.021 1372.19 186.656C1372.19 184.181 1372.49 182.091 1373.09 180.384C1373.69 178.592 1375.01 177.739 1377.06 177.824ZM1374.5 230.688V226.976C1374.5 222.709 1374.28 218.827 1373.86 215.328C1373.51 211.744 1373.3 209.525 1373.22 208.672C1373.3 207.733 1373.94 206.837 1375.14 205.984C1376.33 205.131 1377.4 204.704 1378.34 204.704C1379.96 204.704 1381.58 205.045 1383.2 205.728C1384.91 206.325 1385.97 207.093 1386.4 208.032C1386.83 211.189 1387.04 213.621 1387.04 215.328C1387.04 219.083 1387.21 225.227 1387.55 233.76L1387.68 238.752L1387.94 243.616C1388.02 244.981 1388.11 246.603 1388.19 248.48C1388.28 250.357 1388.32 252.491 1388.32 254.88C1388.32 256.501 1387.51 257.867 1385.89 258.976C1384.35 260.085 1382.73 260.64 1381.02 260.64C1378.55 260.64 1376.8 260.085 1375.78 258.976C1374.84 257.867 1374.37 256.117 1374.37 253.728L1374.5 230.688ZM1461.65 250.144C1462.08 250.315 1462.76 250.528 1463.7 250.784C1464.64 251.04 1465.32 251.296 1465.75 251.552C1466.17 251.808 1466.39 252.192 1466.39 252.704C1466.47 254.752 1465.71 256.459 1464.08 257.824C1462.55 259.104 1460.71 259.744 1458.58 259.744C1455.25 259.744 1452.65 258.848 1450.77 257.056C1448.89 255.264 1447.53 252.533 1446.68 248.864C1446.33 247.413 1446.16 245.408 1446.16 242.848C1446.16 241.397 1446.25 239.051 1446.42 235.808C1446.59 232.395 1446.68 229.664 1446.68 227.616C1446.68 223.947 1446.29 221.173 1445.52 219.296C1444.76 217.333 1442.92 216.352 1440.02 216.352C1437.03 216.352 1434.35 217.547 1431.96 219.936C1429.65 222.325 1427.69 225.909 1426.07 230.688C1423.85 237.344 1422.61 246.176 1422.36 257.184C1422.36 257.781 1421.72 258.507 1420.44 259.36C1419.24 260.128 1417.79 260.512 1416.08 260.512C1412.93 260.512 1410.96 258.848 1410.2 255.52L1410.07 253.344C1410.07 252.576 1410.15 251.68 1410.32 250.656C1411.35 244.683 1411.86 239.477 1411.86 235.04C1411.86 233.077 1411.82 231.541 1411.73 230.432L1411.6 224.416C1411.6 222.368 1411.09 220.405 1410.07 218.528C1409.04 216.565 1407.85 215.584 1406.48 215.584C1406.06 215.584 1405.46 215.755 1404.69 216.096C1403.92 216.352 1403.28 216.48 1402.77 216.48C1401.92 216.48 1400.98 216.053 1399.96 215.2C1399.02 214.347 1398.55 213.451 1398.55 212.512C1398.55 210.72 1399.15 209.269 1400.34 208.16C1401.62 207.136 1402.86 206.325 1404.05 205.728C1405.33 205.131 1406.78 204.832 1408.4 204.832C1409.77 204.832 1410.88 204.96 1411.73 205.216C1412.59 205.472 1413.74 206.027 1415.19 206.88C1416.04 207.307 1417.02 208.501 1418.13 210.464C1419.24 212.427 1420.09 215.2 1420.69 218.784C1422.4 215.627 1425.26 212.299 1429.27 208.8C1432.25 206.069 1436.56 204.704 1442.2 204.704C1447.32 204.704 1451.37 206.581 1454.36 210.336C1457.34 214.005 1458.84 219.083 1458.84 225.568C1458.84 226.848 1458.75 228.939 1458.58 231.84C1458.32 234.144 1458.2 236.576 1458.2 239.136C1458.2 245.109 1459.35 248.779 1461.65 250.144ZM1481.54 177.824C1484.53 178.08 1487.05 178.805 1489.09 180C1491.14 181.195 1492.17 183.115 1492.17 185.76C1492.17 187.723 1491.31 189.301 1489.61 190.496C1487.98 191.605 1485.94 192.16 1483.46 192.16C1480.9 192.16 1479.11 191.563 1478.09 190.368C1477.15 189.173 1476.68 187.936 1476.68 186.656C1476.68 184.181 1476.98 182.091 1477.57 180.384C1478.17 178.592 1479.49 177.739 1481.54 177.824ZM1485.77 204.448C1487.81 204.448 1489.39 205.045 1490.5 206.24C1491.61 207.349 1492.17 208.544 1492.17 209.824C1492.17 210.592 1492.08 211.915 1491.91 213.792C1491.65 216.608 1491.53 219.424 1491.53 222.24C1491.53 225.824 1491.65 229.365 1491.91 232.864C1492.08 236.448 1492.17 239.051 1492.17 240.672C1492.51 251.253 1492.68 259.872 1492.68 266.528C1492.68 273.013 1491.06 277.877 1487.81 281.12C1484.66 284.448 1480.26 286.112 1474.63 286.112C1472.92 286.112 1471.09 285.429 1469.12 284.064C1467.16 282.784 1466.18 281.376 1466.18 279.84C1466.18 278.56 1466.52 277.536 1467.2 276.768C1467.89 276 1468.7 275.616 1469.64 275.616C1470.23 275.616 1471 275.744 1471.94 276C1472.97 276.256 1473.73 276.384 1474.25 276.384C1475.7 276.384 1476.85 276.171 1477.7 275.744C1478.55 275.317 1479.24 274.251 1479.75 272.544C1480.26 270.837 1480.52 268.192 1480.52 264.608C1480.52 245.749 1480.05 231.2 1479.11 220.96C1478.6 215.84 1478.34 211.957 1478.34 209.312C1478.34 208.117 1478.94 207.008 1480.13 205.984C1481.41 204.96 1483.29 204.448 1485.77 204.448ZM1565.77 253.856C1565.77 255.733 1564.75 257.312 1562.7 258.592C1560.74 259.872 1558.9 260.512 1557.2 260.512C1553.96 260.512 1551.35 260.128 1549.39 259.36C1547.51 258.507 1545.76 256.971 1544.14 254.752C1541.92 256.715 1538.89 258.208 1535.05 259.232C1531.21 260.171 1527.67 260.64 1524.43 260.64C1519.14 260.64 1514.79 259.232 1511.37 256.416C1507.96 253.515 1506.25 249.291 1506.25 243.744C1506.25 241.355 1506.89 239.179 1508.17 237.216C1509.45 235.168 1511.2 233.376 1513.42 231.84C1515.9 230.219 1518.71 228.981 1521.87 228.128C1525.03 227.189 1528.31 226.72 1531.73 226.72C1533.52 226.72 1535.65 227.061 1538.13 227.744C1540.6 228.427 1542.52 229.152 1543.89 229.92V227.872C1543.89 223.264 1542.78 220.107 1540.56 218.4C1538.34 216.608 1534.76 215.712 1529.81 215.712C1528.36 215.712 1526.9 216.011 1525.45 216.608C1524.09 217.205 1522.51 218.016 1520.72 219.04C1518.33 220.32 1516.07 220.96 1513.93 220.96C1513.17 220.96 1512.44 220.448 1511.76 219.424C1511.08 218.315 1510.73 217.333 1510.73 216.48C1510.73 214.005 1511.89 211.872 1514.19 210.08C1516.58 208.288 1519.4 206.965 1522.64 206.112C1525.88 205.173 1528.78 204.704 1531.34 204.704C1533.9 204.704 1536.85 205.216 1540.17 206.24C1543.5 207.179 1546.23 208.501 1548.37 210.208C1550.93 212.427 1552.89 215.029 1554.25 218.016C1555.7 220.917 1556.43 224.117 1556.43 227.616C1556.43 228.725 1556.34 230.389 1556.17 232.608C1556 234.997 1555.92 237.045 1555.92 238.752C1555.92 239.52 1555.83 240.672 1555.66 242.208C1555.49 244.085 1555.41 245.579 1555.41 246.688C1555.41 247.712 1555.79 248.608 1556.56 249.376C1557.33 250.059 1558.22 250.4 1559.25 250.4L1562.83 250.272C1563.77 250.272 1564.49 250.613 1565.01 251.296C1565.52 251.979 1565.77 252.832 1565.77 253.856ZM1524.56 250.528C1528.23 250.528 1531.3 250.144 1533.77 249.376C1536.25 248.608 1539.24 247.2 1542.73 245.152C1543.08 243.701 1543.29 241.781 1543.37 239.392C1538.68 237.173 1534.8 236.064 1531.73 236.064C1528.23 236.064 1525.11 236.704 1522.38 237.984C1519.65 239.264 1518.29 241.525 1518.29 244.768C1518.29 246.389 1518.97 247.755 1520.33 248.864C1521.7 249.973 1523.11 250.528 1524.56 250.528ZM1574.16 215.968C1572.02 214.176 1570.96 212.085 1570.96 209.696C1570.96 208.501 1571.55 207.435 1572.75 206.496C1573.94 205.472 1575.39 204.96 1577.1 204.96C1580.17 204.96 1582.69 205.771 1584.65 207.392C1586.61 209.013 1588.32 211.36 1589.77 214.432C1591.56 211.104 1593.83 208.672 1596.56 207.136C1599.37 205.515 1602.91 204.704 1607.18 204.704C1609.74 204.704 1611.79 205.045 1613.32 205.728C1614.95 206.325 1616.27 207.221 1617.29 208.416C1618.32 209.525 1619.6 211.232 1621.13 213.536C1623.35 210.805 1626.12 208.672 1629.45 207.136C1632.87 205.6 1636.36 204.832 1639.95 204.832C1644.13 204.832 1647.93 206.581 1651.34 210.08C1654.84 213.579 1657.19 217.547 1658.38 221.984C1658.81 223.861 1659.11 228.299 1659.28 235.296L1659.79 242.72C1660.21 247.243 1661.67 249.931 1664.14 250.784C1665.33 251.125 1666.32 251.552 1667.08 252.064C1667.94 252.491 1668.36 252.96 1668.36 253.472C1668.53 255.52 1668.07 257.013 1666.96 257.952C1666.19 258.464 1665.12 259.019 1663.76 259.616C1662.39 260.213 1661.32 260.512 1660.56 260.512C1655.95 260.512 1652.66 258.848 1650.7 255.52C1649.42 253.301 1648.61 250.784 1648.27 247.968C1647.93 245.067 1647.76 241.141 1647.76 236.192C1647.76 230.901 1647.12 226.379 1645.84 222.624C1644.56 218.784 1641.65 216.864 1637.13 216.864C1635.51 216.864 1633.89 217.376 1632.27 218.4C1630.73 219.339 1629.62 220.533 1628.94 221.984C1627.75 224.288 1626.93 226.805 1626.51 229.536C1626.08 232.181 1625.87 235.253 1625.87 238.752C1625.87 240.971 1626 243.232 1626.25 245.536C1626.25 246.219 1626.29 247.328 1626.38 248.864C1626.55 250.315 1626.64 251.637 1626.64 252.832C1626.64 254.965 1626.21 256.8 1625.36 258.336C1624.59 259.787 1623.22 260.512 1621.26 260.512C1616.57 260.512 1614.09 258.037 1613.84 253.088C1613.84 249.589 1613.88 247.712 1613.96 247.456V241.952C1613.96 238.88 1613.84 235.893 1613.58 232.992C1613.32 230.091 1613.03 227.915 1612.68 226.464C1611.92 223.648 1610.89 221.472 1609.61 219.936C1608.33 218.4 1606.37 217.632 1603.72 217.632C1601.93 217.632 1600.27 218.059 1598.73 218.912C1597.2 219.765 1595.87 220.96 1594.76 222.496C1593.14 225.056 1592.08 228.171 1591.56 231.84C1591.05 236.533 1590.67 240.245 1590.41 242.976C1590.24 245.621 1590.16 248.693 1590.16 252.192C1590.16 254.667 1589.73 256.672 1588.88 258.208C1588.11 259.744 1586.61 260.512 1584.4 260.512C1582.77 260.512 1581.07 260.085 1579.28 259.232C1577.57 258.293 1576.72 257.056 1576.72 255.52C1576.72 253.899 1576.89 252.277 1577.23 250.656C1578 245.792 1578.38 237.515 1578.38 225.824C1578.38 223.947 1577.95 222.112 1577.1 220.32C1576.33 218.443 1575.35 216.992 1574.16 215.968ZM1749.94 226.08C1752.92 231.115 1755.91 235.595 1758.9 239.52C1761.97 243.36 1765.98 248.096 1770.93 253.728C1771.53 254.325 1771.83 255.008 1771.83 255.776C1771.83 256.971 1771.14 257.995 1769.78 258.848C1768.5 259.701 1766.92 260.128 1765.04 260.128C1762.4 260.128 1759.54 259.019 1756.47 256.8C1753.74 254.837 1751.3 252.235 1749.17 248.992C1747.04 245.749 1744.56 241.525 1741.75 236.32C1739.53 232.309 1738.2 229.963 1737.78 229.28C1734.45 230.645 1729.24 231.499 1722.16 231.84C1722.16 234.741 1722.42 238.667 1722.93 243.616C1723.44 248.736 1723.7 252.448 1723.7 254.752C1723.7 256.288 1722.93 257.568 1721.39 258.592C1719.94 259.616 1718.28 260.128 1716.4 260.128C1714.18 260.128 1712.48 259.232 1711.28 257.44C1710.09 255.051 1709.32 252.192 1708.98 248.864C1708.64 245.536 1708.47 241.568 1708.47 236.96C1708.47 232.096 1708.76 226.592 1709.36 220.448C1709.87 213.621 1710.13 208.587 1710.13 205.344C1710.13 202.699 1709.87 199.157 1709.36 194.72C1709.28 193.952 1709.15 192.629 1708.98 190.752C1708.81 188.875 1708.72 187.168 1708.72 185.632C1708.72 184.437 1709.15 183.413 1710 182.56C1710.94 181.621 1711.92 180.981 1712.95 180.64C1719.86 179.531 1726.6 178.976 1733.17 178.976C1744.35 178.976 1753.61 181.067 1760.95 185.248C1768.28 189.429 1771.95 195.787 1771.95 204.32C1771.95 206.965 1771.36 209.525 1770.16 212C1769.05 214.389 1767.52 216.395 1765.55 218.016C1760.35 222.027 1755.14 224.715 1749.94 226.08ZM1758.51 203.936C1758.51 199.84 1756.34 196.512 1751.99 193.952C1747.63 191.307 1741.45 189.984 1733.43 189.984C1729.84 189.984 1726.3 190.411 1722.8 191.264L1722.93 197.792C1722.93 201.547 1722.8 205.216 1722.55 208.8C1722.29 212.384 1722.16 216.224 1722.16 220.32C1723.61 219.979 1725.15 219.765 1726.77 219.68C1728.39 219.509 1729.46 219.381 1729.97 219.296C1733.72 218.955 1736.63 218.528 1738.67 218.016C1742.51 216.821 1745.67 215.755 1748.15 214.816C1750.71 213.792 1753.05 212.384 1755.19 210.592C1757.4 208.715 1758.51 206.496 1758.51 203.936ZM1788.79 204.448C1794.42 204.448 1797.24 208.16 1797.24 215.584C1797.24 216.523 1797.15 218.613 1796.98 221.856C1796.81 225.611 1796.72 228.555 1796.72 230.688C1796.72 236.661 1797.53 241.483 1799.16 245.152C1799.75 246.347 1800.82 247.285 1802.36 247.968C1803.98 248.651 1805.34 248.992 1806.45 248.992C1808.16 248.992 1809.57 248.779 1810.68 248.352C1811.79 247.925 1812.81 247.285 1813.75 246.432C1814.77 245.579 1815.75 244.64 1816.69 243.616C1818.31 241.824 1819.34 239.776 1819.76 237.472C1820.28 235.083 1820.57 231.925 1820.66 228C1820.66 225.525 1820.79 223.136 1821.04 220.832C1821.56 217.077 1821.81 213.579 1821.81 210.336C1821.81 208.544 1822.28 207.051 1823.22 205.856C1824.24 204.576 1825.69 203.936 1827.57 203.936C1828.51 203.936 1829.62 204.277 1830.9 204.96C1832.27 205.557 1833.16 206.24 1833.59 207.008C1834.19 208.032 1834.48 209.44 1834.48 211.232C1834.48 212.341 1834.36 213.365 1834.1 214.304C1833.67 215.584 1833.46 217.205 1833.46 219.168C1833.46 220.192 1833.55 221.899 1833.72 224.288C1833.97 226.08 1834.1 227.915 1834.1 229.792C1834.1 235.509 1834.53 239.733 1835.38 242.464C1836.32 245.365 1837.6 247.925 1839.22 250.144C1840.93 251.936 1842.08 253.259 1842.68 254.112C1843.27 254.88 1843.57 255.563 1843.57 256.16C1843.57 257.184 1843.06 258.165 1842.04 259.104C1841.01 260.043 1839.95 260.512 1838.84 260.512C1835.68 260.512 1832.91 259.445 1830.52 257.312C1828.21 255.093 1826.51 252.277 1825.4 248.864C1824.46 249.973 1823.22 251.339 1821.68 252.96C1820.15 254.581 1818.7 255.904 1817.33 256.928C1814 259.317 1809.74 260.512 1804.53 260.512C1802.4 260.512 1800.05 259.872 1797.49 258.592C1795.02 257.312 1792.76 255.648 1790.71 253.6C1788.66 251.467 1787.25 249.205 1786.48 246.816C1786.4 246.645 1786.14 245.963 1785.72 244.768C1785.37 243.573 1785.2 241.781 1785.2 239.392L1785.08 218.912C1785.08 217.717 1784.78 215.84 1784.18 213.28C1783.67 211.573 1783.41 210.293 1783.41 209.44C1783.41 207.989 1783.88 206.795 1784.82 205.856C1785.84 204.917 1787.17 204.448 1788.79 204.448ZM1911.27 253.856C1911.27 255.733 1910.25 257.312 1908.2 258.592C1906.15 259.872 1904.27 260.512 1902.57 260.512C1899.41 260.512 1896.85 260.128 1894.89 259.36C1893.01 258.507 1891.22 256.971 1889.51 254.752C1887.38 256.715 1884.39 258.208 1880.55 259.232C1876.71 260.171 1873.17 260.64 1869.93 260.64C1864.64 260.64 1860.24 259.232 1856.74 256.416C1853.33 253.515 1851.62 249.291 1851.62 243.744C1851.62 241.355 1852.35 238.965 1853.8 236.576C1855.25 234.101 1857.04 232.139 1859.18 230.688C1861.48 229.152 1864.08 228.128 1866.98 227.616C1869.88 227.019 1873.26 226.72 1877.1 226.72C1878.89 226.72 1881.02 227.061 1883.5 227.744C1885.97 228.427 1887.93 229.152 1889.38 229.92V227.872C1889.38 223.264 1888.23 220.107 1885.93 218.4C1883.71 216.608 1880.12 215.712 1875.18 215.712C1873.64 215.712 1872.23 215.968 1870.95 216.48C1869.76 216.907 1868.35 217.547 1866.73 218.4C1865.19 219.253 1863.74 219.68 1862.38 219.68C1861.18 219.68 1860.03 219.211 1858.92 218.272C1857.81 217.248 1857.26 216.181 1857.26 215.072C1857.26 211.488 1859.47 208.885 1863.91 207.264C1868.43 205.557 1873.04 204.704 1877.74 204.704C1880.12 204.704 1882.86 205.216 1885.93 206.24C1889 207.179 1891.6 208.501 1893.74 210.208C1896.3 212.341 1898.26 214.901 1899.62 217.888C1901.07 220.875 1901.8 224.117 1901.8 227.616C1901.8 228.725 1901.71 230.389 1901.54 232.608C1901.37 234.997 1901.29 237.045 1901.29 238.752L1901.16 242.208C1900.99 244.085 1900.9 245.579 1900.9 246.688C1900.9 247.712 1901.24 248.608 1901.93 249.376C1902.7 250.059 1903.59 250.4 1904.62 250.4L1908.2 250.272C1909.14 250.272 1909.86 250.656 1910.38 251.424C1910.97 252.107 1911.27 252.917 1911.27 253.856ZM1869.93 250.528C1873.6 250.528 1876.67 250.144 1879.14 249.376C1881.62 248.608 1884.6 247.2 1888.1 245.152C1888.44 243.701 1888.66 241.781 1888.74 239.392C1884.05 237.173 1880.17 236.064 1877.1 236.064C1874.19 236.064 1871.85 236.192 1870.06 236.448C1868.26 236.619 1866.64 237.344 1865.19 238.624C1863.74 239.904 1863.02 241.952 1863.02 244.768C1863.02 246.389 1863.78 247.755 1865.32 248.864C1866.94 249.973 1868.48 250.528 1869.93 250.528ZM1977.9 250.144C1978.33 250.315 1979.01 250.528 1979.95 250.784C1980.89 251.04 1981.57 251.296 1982 251.552C1982.42 251.808 1982.64 252.192 1982.64 252.704C1982.72 254.752 1981.96 256.459 1980.33 257.824C1978.8 259.104 1976.96 259.744 1974.83 259.744C1971.5 259.744 1968.9 258.848 1967.02 257.056C1965.14 255.264 1963.78 252.533 1962.93 248.864C1962.58 247.413 1962.41 245.408 1962.41 242.848C1962.41 241.397 1962.5 239.051 1962.67 235.808C1962.84 232.395 1962.93 229.664 1962.93 227.616C1962.93 223.947 1962.54 221.173 1961.77 219.296C1961.01 217.333 1959.17 216.352 1956.27 216.352C1953.28 216.352 1950.6 217.547 1948.21 219.936C1945.9 222.325 1943.94 225.909 1942.32 230.688C1940.1 237.344 1938.86 246.176 1938.61 257.184C1938.61 257.781 1937.97 258.507 1936.69 259.36C1935.49 260.128 1934.04 260.512 1932.33 260.512C1929.18 260.512 1927.21 258.848 1926.45 255.52L1926.32 253.344C1926.32 252.576 1926.4 251.68 1926.57 250.656C1927.6 244.683 1928.11 239.477 1928.11 235.04C1928.11 233.077 1928.07 231.541 1927.98 230.432L1927.85 224.416C1927.85 222.368 1927.34 220.405 1926.32 218.528C1925.29 216.565 1924.1 215.584 1922.73 215.584C1922.31 215.584 1921.71 215.755 1920.94 216.096C1920.17 216.352 1919.53 216.48 1919.02 216.48C1918.17 216.48 1917.23 216.053 1916.21 215.2C1915.27 214.347 1914.8 213.451 1914.8 212.512C1914.8 210.72 1915.4 209.269 1916.59 208.16C1917.87 207.136 1919.11 206.325 1920.3 205.728C1921.58 205.131 1923.03 204.832 1924.65 204.832C1926.02 204.832 1927.13 204.96 1927.98 205.216C1928.84 205.472 1929.99 206.027 1931.44 206.88C1932.29 207.307 1933.27 208.501 1934.38 210.464C1935.49 212.427 1936.34 215.2 1936.94 218.784C1938.65 215.627 1941.51 212.299 1945.52 208.8C1948.5 206.069 1952.81 204.704 1958.45 204.704C1963.57 204.704 1967.62 206.581 1970.61 210.336C1973.59 214.005 1975.09 219.083 1975.09 225.568C1975.09 226.848 1975 228.939 1974.83 231.84C1974.57 234.144 1974.45 236.576 1974.45 239.136C1974.45 245.109 1975.6 248.779 1977.9 250.144ZM2038.37 259.744C2040.67 261.365 2042.21 263.157 2042.98 265.12C2043.83 267.083 2044.26 269.813 2044.26 273.312C2044.26 275.019 2043.74 276.725 2042.72 278.432C2041.78 280.139 2040.8 281.376 2039.78 282.144C2031.67 286.581 2023.56 288.8 2015.46 288.8C2011.44 288.8 2007.99 288.288 2005.09 287.264C2002.19 286.24 1999.46 284.875 1996.9 283.168C1995.19 281.888 1993.78 280.096 1992.67 277.792C1991.65 275.573 1991.14 273.355 1991.14 271.136C1991.14 268.064 1992.07 265.376 1993.95 263.072C1995.91 260.768 1998.52 259.104 2001.76 258.08C2001.16 256.8 2000.86 255.307 2000.86 253.6C2000.86 251.979 2002.06 249.547 2004.45 246.304C2000.35 244.939 1997.11 242.507 1994.72 239.008C1992.42 235.509 1991.26 231.413 1991.26 226.72C1991.26 223.819 1991.95 221.259 1993.31 219.04C1994.68 216.736 1996.72 214.091 1999.46 211.104C2001.33 209.056 2003.72 207.563 2006.62 206.624C2009.52 205.685 2013.15 205.216 2017.5 205.216C2020.58 205.216 2024.37 205.899 2028.9 207.264C2034.27 203.509 2039.01 201.632 2043.1 201.632C2044.13 201.632 2045.28 201.888 2046.56 202.4C2047.92 202.912 2048.95 203.424 2049.63 203.936C2050.14 204.875 2050.4 206.453 2050.4 208.672C2050.4 209.525 2050.02 210.379 2049.25 211.232C2048.56 212 2047.67 212.384 2046.56 212.384L2043.49 212.256C2041.95 212.085 2040.76 212 2039.9 212C2038.96 212 2037.56 212.085 2035.68 212.256C2037.47 214.389 2038.84 216.651 2039.78 219.04C2040.8 221.429 2041.31 224.544 2041.31 228.384C2041.31 231.285 2040.24 234.315 2038.11 237.472C2035.98 240.629 2033.46 243.104 2030.56 244.896C2026.12 247.285 2020.96 248.523 2015.07 248.608C2014.39 249.291 2013.79 249.931 2013.28 250.528C2012.85 251.04 2012.64 251.467 2012.64 251.808C2012.64 252.747 2013.45 253.472 2015.07 253.984C2016.69 254.496 2019.17 254.88 2022.5 255.136C2025.06 255.307 2027.87 255.861 2030.94 256.8C2034.1 257.653 2036.58 258.635 2038.37 259.744ZM2015.84 238.112C2019.76 238.112 2022.92 237.045 2025.31 234.912C2027.7 232.779 2028.9 229.749 2028.9 225.824C2028.9 222.837 2027.83 220.405 2025.7 218.528C2023.56 216.651 2020.83 215.712 2017.5 215.712C2015.37 215.712 2013.07 216.096 2010.59 216.864C2008.2 217.547 2006.5 218.656 2005.47 220.192C2004.96 220.875 2004.45 222.197 2003.94 224.16C2003.42 226.037 2003.17 227.488 2003.17 228.512C2003.17 229.963 2003.76 231.456 2004.96 232.992C2006.24 234.443 2007.86 235.68 2009.82 236.704C2011.87 237.643 2013.88 238.112 2015.84 238.112ZM2023.9 265.888C2019.21 265.461 2015.88 265.035 2013.92 264.608C2012.04 264.267 2010.51 263.84 2009.31 263.328C2004.96 265.632 2002.78 268.149 2002.78 270.88C2002.78 273.44 2004.11 275.36 2006.75 276.64C2009.4 278.005 2012.43 278.688 2015.84 278.688C2017.38 278.688 2019.47 278.517 2022.11 278.176C2024.76 277.835 2026.98 277.237 2028.77 276.384C2029.96 275.787 2030.86 275.189 2031.46 274.592C2032.05 274.08 2032.35 273.099 2032.35 271.648C2032.35 269.856 2031.41 268.491 2029.54 267.552C2027.66 266.613 2025.78 266.059 2023.9 265.888ZM2146.95 238.752C2150.19 241.995 2152.75 244.811 2154.63 247.2C2156.59 249.504 2157.57 251.509 2157.57 253.216C2157.57 255.605 2156.89 257.397 2155.53 258.592C2154.25 259.787 2152.62 260.384 2150.66 260.384C2149.3 260.384 2147.89 259.701 2146.44 258.336C2144.99 256.971 2143.66 255.52 2142.47 253.984C2141.28 252.448 2140.51 251.467 2140.17 251.04C2138.2 248.651 2134.36 243.872 2128.65 236.704C2123.01 229.451 2119.09 224.245 2116.87 221.088C2116.19 221.515 2115.16 222.368 2113.8 223.648C2113.29 224.075 2111.96 225.184 2109.83 226.976C2107.7 228.683 2105.35 230.432 2102.79 232.224C2102.79 232.736 2102.92 236.576 2103.17 243.744C2103.34 249.035 2103.43 252.491 2103.43 254.112C2103.43 255.477 2102.96 256.885 2102.02 258.336C2101.08 259.701 2099.68 260.384 2097.8 260.384C2095.07 260.384 2093.1 259.915 2091.91 258.976C2090.72 258.037 2089.99 256.672 2089.73 254.88C2089.05 250.784 2088.71 246.731 2088.71 242.72C2088.71 238.283 2089.05 231.797 2089.73 223.264C2090.42 215.243 2090.76 209.227 2090.76 205.216C2090.76 203.68 2090.67 201.461 2090.5 198.56C2090.42 196.256 2090.16 194.123 2089.73 192.16C2089.39 189.429 2089.22 187.509 2089.22 186.4C2089.22 183.669 2089.82 181.707 2091.01 180.512C2092.21 179.317 2094.04 178.72 2096.52 178.72C2098.4 178.72 2099.93 179.275 2101.13 180.384C2102.41 181.408 2103.13 182.816 2103.3 184.608C2103.73 191.861 2103.94 197.493 2103.94 201.504C2103.86 203.467 2103.69 206.24 2103.43 209.824C2103.26 213.323 2103.09 215.584 2102.92 216.608C2105.9 214.389 2111.88 209.184 2120.84 200.992C2129.88 192.715 2135.94 187.125 2139.01 184.224C2139.44 183.797 2140.17 183.072 2141.19 182.048C2142.3 180.939 2143.32 180.171 2144.26 179.744C2145.2 179.317 2146.22 179.104 2147.33 179.104C2148.87 179.104 2150.19 179.829 2151.3 181.28C2152.5 182.645 2153.09 184.139 2153.09 185.76C2153.09 186.699 2152.71 187.723 2151.94 188.832C2151.26 189.856 2150.02 191.264 2148.23 193.056C2142 199.541 2135.09 206.283 2127.49 213.28C2129.46 216.437 2132.7 221.003 2137.22 226.976C2141.83 232.864 2145.07 236.789 2146.95 238.752ZM2224.9 253.856C2224.9 255.733 2223.88 257.312 2221.83 258.592C2219.86 259.872 2218.03 260.512 2216.32 260.512C2213.08 260.512 2210.48 260.128 2208.52 259.36C2206.64 258.507 2204.89 256.971 2203.27 254.752C2201.05 256.715 2198.02 258.208 2194.18 259.232C2190.34 260.171 2186.8 260.64 2183.56 260.64C2178.26 260.64 2173.91 259.232 2170.5 256.416C2167.09 253.515 2165.38 249.291 2165.38 243.744C2165.38 241.355 2166.02 239.179 2167.3 237.216C2168.58 235.168 2170.33 233.376 2172.55 231.84C2175.02 230.219 2177.84 228.981 2181 228.128C2184.15 227.189 2187.44 226.72 2190.85 226.72C2192.64 226.72 2194.78 227.061 2197.25 227.744C2199.73 228.427 2201.65 229.152 2203.01 229.92V227.872C2203.01 223.264 2201.9 220.107 2199.68 218.4C2197.46 216.608 2193.88 215.712 2188.93 215.712C2187.48 215.712 2186.03 216.011 2184.58 216.608C2183.21 217.205 2181.64 218.016 2179.84 219.04C2177.45 220.32 2175.19 220.96 2173.06 220.96C2172.29 220.96 2171.57 220.448 2170.88 219.424C2170.2 218.315 2169.86 217.333 2169.86 216.48C2169.86 214.005 2171.01 211.872 2173.32 210.08C2175.7 208.288 2178.52 206.965 2181.76 206.112C2185.01 205.173 2187.91 204.704 2190.47 204.704C2193.03 204.704 2195.97 205.216 2199.3 206.24C2202.63 207.179 2205.36 208.501 2207.49 210.208C2210.05 212.427 2212.01 215.029 2213.38 218.016C2214.83 220.917 2215.56 224.117 2215.56 227.616C2215.56 228.725 2215.47 230.389 2215.3 232.608C2215.13 234.997 2215.04 237.045 2215.04 238.752C2215.04 239.52 2214.96 240.672 2214.79 242.208C2214.62 244.085 2214.53 245.579 2214.53 246.688C2214.53 247.712 2214.92 248.608 2215.68 249.376C2216.45 250.059 2217.35 250.4 2218.37 250.4L2221.96 250.272C2222.89 250.272 2223.62 250.613 2224.13 251.296C2224.64 251.979 2224.9 252.832 2224.9 253.856ZM2183.68 250.528C2187.35 250.528 2190.42 250.144 2192.9 249.376C2195.37 248.608 2198.36 247.2 2201.86 245.152C2202.2 243.701 2202.41 241.781 2202.5 239.392C2197.81 237.173 2193.92 236.064 2190.85 236.064C2187.35 236.064 2184.24 236.704 2181.51 237.984C2178.78 239.264 2177.41 241.525 2177.41 244.768C2177.41 246.389 2178.09 247.755 2179.46 248.864C2180.82 249.973 2182.23 250.528 2183.68 250.528ZM2247.75 240.16C2247.75 243.403 2248.21 245.92 2249.15 247.712C2250.18 249.419 2251.46 250.272 2252.99 250.272C2253.85 250.272 2254.66 250.229 2255.43 250.144C2256.19 249.973 2256.96 249.888 2257.73 249.888C2258.58 249.888 2259.31 250.315 2259.91 251.168C2260.59 252.021 2260.93 252.96 2260.93 253.984C2260.93 256.032 2259.95 257.653 2257.99 258.848C2256.11 259.957 2253.55 260.512 2250.31 260.512C2248 260.512 2245.65 259.829 2243.27 258.464C2240.96 257.013 2239.04 254.795 2237.51 251.808C2235.97 248.736 2235.2 244.939 2235.2 240.416C2235.2 230.688 2235.37 222.453 2235.71 215.712C2236.14 207.691 2236.35 197.579 2236.35 185.376C2236.35 181.536 2236.57 178.848 2236.99 177.312C2237.51 176.117 2238.32 175.221 2239.43 174.624C2240.62 173.941 2241.86 173.6 2243.14 173.6C2244.42 173.6 2245.53 173.813 2246.47 174.24C2247.49 174.667 2248.17 175.349 2248.51 176.288C2248.85 177.312 2249.07 178.336 2249.15 179.36C2249.32 180.299 2249.41 181.664 2249.41 183.456C2249.41 186.955 2249.28 190.325 2249.03 193.568C2248.85 197.493 2248.77 200.352 2248.77 202.144C2248.09 217.163 2247.75 229.835 2247.75 240.16ZM2276.19 177.824C2279.17 178.08 2281.78 178.891 2284 180.256C2286.21 181.536 2287.32 183.499 2287.32 186.144C2287.32 188.107 2286.38 189.685 2284.51 190.88C2282.72 191.989 2280.54 192.544 2277.98 192.544C2275.5 192.544 2273.8 191.904 2272.86 190.624C2271.92 189.344 2271.45 188.021 2271.45 186.656C2271.45 184.096 2271.71 181.963 2272.22 180.256C2272.82 178.549 2274.14 177.739 2276.19 177.824ZM2286.43 234.528V238.24C2286.43 241.568 2286.51 244.725 2286.68 247.712C2286.94 250.613 2287.24 253.557 2287.58 256.544C2287.58 257.568 2286.98 258.507 2285.79 259.36C2284.59 260.128 2283.48 260.512 2282.46 260.512C2280.84 260.512 2279.17 260.213 2277.47 259.616C2275.85 258.933 2274.86 258.123 2274.52 257.184C2274.01 254.453 2273.76 252.021 2273.76 249.888C2273.76 242.891 2273.54 235.04 2273.12 226.336C2272.77 218.656 2272.6 213.28 2272.6 210.208C2272.6 208.672 2273.37 207.349 2274.91 206.24C2276.44 205.131 2278.06 204.576 2279.77 204.576C2282.25 204.576 2283.95 205.131 2284.89 206.24C2285.92 207.349 2286.43 209.099 2286.43 211.488V234.528ZM2302.67 215.712C2301.47 215.541 2300.49 215.029 2299.72 214.176C2299.04 213.323 2298.7 212.299 2298.7 211.104C2298.7 210.507 2298.83 209.867 2299.08 209.184C2299.42 208.501 2299.89 207.904 2300.49 207.392C2301.6 206.453 2303.09 205.557 2304.97 204.704C2306.93 203.936 2308.34 202.997 2309.19 201.888C2310.05 200.779 2310.47 198.688 2310.47 195.616C2310.47 194.336 2310.39 193.227 2310.22 192.288C2310.13 191.349 2310.09 190.624 2310.09 190.112C2310.09 188.235 2310.77 186.827 2312.14 185.888C2313.5 184.949 2315.08 184.48 2316.87 184.48C2319.09 184.48 2320.59 185.035 2321.35 186.144C2322.21 187.253 2322.63 189.301 2322.63 192.288C2322.63 195.189 2322.51 197.707 2322.25 199.84C2321.99 201.888 2321.44 203.723 2320.59 205.344C2321.78 205.344 2323.74 205.259 2326.47 205.088C2330.23 204.917 2332.83 204.832 2334.28 204.832C2335.73 204.832 2337.01 205.216 2338.12 205.984C2339.23 206.667 2339.79 207.648 2339.79 208.928C2339.79 210.72 2339.4 212.043 2338.63 212.896C2337.87 213.749 2336.76 214.304 2335.31 214.56C2331.81 215.499 2326.86 216.053 2320.46 216.224C2320.29 219.552 2320.2 223.179 2320.2 227.104C2320.2 233.675 2320.59 238.709 2321.35 242.208C2321.87 244.939 2322.72 246.944 2323.91 248.224C2325.19 249.419 2327.07 250.016 2329.55 250.016C2330.83 250.016 2331.85 249.845 2332.62 249.504C2333.47 249.163 2333.94 248.949 2334.03 248.864C2335.05 248.267 2335.99 247.968 2336.84 247.968C2338.04 247.968 2338.89 248.352 2339.4 249.12C2340 249.888 2340.3 250.912 2340.3 252.192C2340.3 254.581 2339.02 256.587 2336.46 258.208C2333.9 259.744 2330.61 260.512 2326.6 260.512C2322.08 260.512 2318.24 259.189 2315.08 256.544C2312.01 253.813 2310.17 250.229 2309.58 245.792C2308.72 241.781 2308.3 236.149 2308.3 228.896C2308.3 225.739 2308.47 221.515 2308.81 216.224L2302.67 215.712ZM2408.65 253.856C2408.65 255.733 2407.62 257.312 2405.57 258.592C2403.53 259.872 2401.65 260.512 2399.94 260.512C2396.78 260.512 2394.22 260.128 2392.26 259.36C2390.38 258.507 2388.59 256.971 2386.89 254.752C2384.75 256.715 2381.77 258.208 2377.93 259.232C2374.09 260.171 2370.54 260.64 2367.3 260.64C2362.01 260.64 2357.62 259.232 2354.12 256.416C2350.7 253.515 2349 249.291 2349 243.744C2349 241.355 2349.72 238.965 2351.17 236.576C2352.62 234.101 2354.42 232.139 2356.55 230.688C2358.85 229.152 2361.46 228.128 2364.36 227.616C2367.26 227.019 2370.63 226.72 2374.47 226.72C2376.26 226.72 2378.4 227.061 2380.87 227.744C2383.34 228.427 2385.31 229.152 2386.76 229.92V227.872C2386.76 223.264 2385.61 220.107 2383.3 218.4C2381.08 216.608 2377.5 215.712 2372.55 215.712C2371.01 215.712 2369.61 215.968 2368.33 216.48C2367.13 216.907 2365.72 217.547 2364.1 218.4C2362.57 219.253 2361.12 219.68 2359.75 219.68C2358.56 219.68 2357.4 219.211 2356.29 218.272C2355.18 217.248 2354.63 216.181 2354.63 215.072C2354.63 211.488 2356.85 208.885 2361.29 207.264C2365.81 205.557 2370.42 204.704 2375.11 204.704C2377.5 204.704 2380.23 205.216 2383.3 206.24C2386.37 207.179 2388.98 208.501 2391.11 210.208C2393.67 212.341 2395.63 214.901 2397 217.888C2398.45 220.875 2399.17 224.117 2399.17 227.616C2399.17 228.725 2399.09 230.389 2398.92 232.608C2398.75 234.997 2398.66 237.045 2398.66 238.752L2398.53 242.208C2398.36 244.085 2398.28 245.579 2398.28 246.688C2398.28 247.712 2398.62 248.608 2399.3 249.376C2400.07 250.059 2400.97 250.4 2401.99 250.4L2405.57 250.272C2406.51 250.272 2407.24 250.656 2407.75 251.424C2408.35 252.107 2408.65 252.917 2408.65 253.856ZM2367.3 250.528C2370.97 250.528 2374.04 250.144 2376.52 249.376C2378.99 248.608 2381.98 247.2 2385.48 245.152C2385.82 243.701 2386.03 241.781 2386.12 239.392C2381.42 237.173 2377.54 236.064 2374.47 236.064C2371.57 236.064 2369.22 236.192 2367.43 236.448C2365.64 236.619 2364.02 237.344 2362.57 238.624C2361.12 239.904 2360.39 241.952 2360.39 244.768C2360.39 246.389 2361.16 247.755 2362.69 248.864C2364.32 249.973 2365.85 250.528 2367.3 250.528ZM2497.68 255.52C2496.4 253.131 2495.59 250.485 2495.25 247.584C2494.9 244.597 2494.73 240.501 2494.73 235.296C2494.73 230.347 2494.05 226.037 2492.69 222.368C2491.32 218.699 2488.5 216.864 2484.24 216.864C2482.62 216.864 2480.99 217.376 2479.37 218.4C2477.84 219.339 2476.69 220.533 2475.92 221.984C2474.72 224.288 2473.91 226.805 2473.49 229.536C2473.06 232.181 2472.85 235.253 2472.85 238.752C2472.85 240.971 2472.97 243.232 2473.23 245.536C2473.23 246.219 2473.27 247.328 2473.36 248.864C2473.53 250.315 2473.61 251.637 2473.61 252.832C2473.61 257.952 2471.82 260.512 2468.24 260.512C2463.54 260.512 2461.07 258.037 2460.81 253.088C2460.81 249.589 2460.86 247.712 2460.94 247.456V241.952C2460.94 238.88 2460.81 235.893 2460.56 232.992C2460.3 230.091 2460 227.915 2459.66 226.464C2458.89 223.648 2457.87 221.472 2456.59 219.936C2455.39 218.4 2453.47 217.632 2450.83 217.632C2447.07 217.632 2444.05 219.253 2441.74 222.496C2440.12 225.056 2439.05 228.171 2438.54 231.84C2438.03 236.533 2437.65 240.245 2437.39 242.976C2437.22 245.621 2437.13 248.693 2437.13 252.192C2437.13 254.667 2436.71 256.672 2435.85 258.208C2435.09 259.744 2433.59 260.512 2431.37 260.512C2429.75 260.512 2428.05 260.085 2426.25 259.232C2424.55 258.293 2423.69 257.056 2423.69 255.52C2423.69 253.899 2423.86 252.277 2424.21 250.656C2424.97 245.792 2425.36 237.088 2425.36 224.544C2425.36 222.496 2424.85 220.533 2423.82 218.656C2422.88 216.693 2421.73 215.712 2420.37 215.712C2420.02 215.712 2419.38 215.883 2418.45 216.224C2417.59 216.565 2416.95 216.736 2416.53 216.736C2415.42 216.736 2414.39 216.224 2413.45 215.2C2412.6 214.176 2412.17 213.323 2412.17 212.64C2412.17 210.507 2413.2 208.715 2415.25 207.264C2417.38 205.728 2419.6 204.96 2421.9 204.96C2425.06 204.96 2427.75 205.941 2429.97 207.904C2432.18 209.867 2433.89 212.597 2435.09 216.096C2437.05 212.683 2439.69 209.952 2443.02 207.904C2446.35 205.771 2450.06 204.704 2454.16 204.704C2456.72 204.704 2458.77 205.045 2460.3 205.728C2461.92 206.325 2463.25 207.221 2464.27 208.416C2465.29 209.525 2466.62 211.232 2468.24 213.536C2470.37 210.805 2473.1 208.672 2476.43 207.136C2479.84 205.6 2483.34 204.832 2486.93 204.832C2491.19 204.832 2495.03 206.581 2498.45 210.08C2501.86 213.493 2504.16 217.461 2505.36 221.984C2505.95 224.288 2506.25 228.725 2506.25 235.296L2506.77 242.72C2507.19 247.157 2508.64 249.845 2511.12 250.784C2514.02 251.637 2515.47 252.533 2515.47 253.472C2515.47 255.52 2514.96 257.013 2513.93 257.952C2513.17 258.464 2512.1 259.019 2510.73 259.616C2509.37 260.213 2508.3 260.512 2507.53 260.512C2502.93 260.512 2499.64 258.848 2497.68 255.52ZM2582.77 253.856C2582.77 255.733 2581.75 257.312 2579.7 258.592C2577.74 259.872 2575.9 260.512 2574.2 260.512C2570.96 260.512 2568.35 260.128 2566.39 259.36C2564.51 258.507 2562.76 256.971 2561.14 254.752C2558.92 256.715 2555.89 258.208 2552.05 259.232C2548.21 260.171 2544.67 260.64 2541.43 260.64C2536.14 260.64 2531.79 259.232 2528.37 256.416C2524.96 253.515 2523.25 249.291 2523.25 243.744C2523.25 241.355 2523.89 239.179 2525.17 237.216C2526.45 235.168 2528.2 233.376 2530.42 231.84C2532.9 230.219 2535.71 228.981 2538.87 228.128C2542.03 227.189 2545.31 226.72 2548.73 226.72C2550.52 226.72 2552.65 227.061 2555.13 227.744C2557.6 228.427 2559.52 229.152 2560.89 229.92V227.872C2560.89 223.264 2559.78 220.107 2557.56 218.4C2555.34 216.608 2551.76 215.712 2546.81 215.712C2545.36 215.712 2543.9 216.011 2542.45 216.608C2541.09 217.205 2539.51 218.016 2537.72 219.04C2535.33 220.32 2533.07 220.96 2530.93 220.96C2530.17 220.96 2529.44 220.448 2528.76 219.424C2528.08 218.315 2527.73 217.333 2527.73 216.48C2527.73 214.005 2528.89 211.872 2531.19 210.08C2533.58 208.288 2536.4 206.965 2539.64 206.112C2542.88 205.173 2545.78 204.704 2548.34 204.704C2550.9 204.704 2553.85 205.216 2557.17 206.24C2560.5 207.179 2563.23 208.501 2565.37 210.208C2567.93 212.427 2569.89 215.029 2571.25 218.016C2572.7 220.917 2573.43 224.117 2573.43 227.616C2573.43 228.725 2573.34 230.389 2573.17 232.608C2573 234.997 2572.92 237.045 2572.92 238.752C2572.92 239.52 2572.83 240.672 2572.66 242.208C2572.49 244.085 2572.41 245.579 2572.41 246.688C2572.41 247.712 2572.79 248.608 2573.56 249.376C2574.33 250.059 2575.22 250.4 2576.25 250.4L2579.83 250.272C2580.77 250.272 2581.49 250.613 2582.01 251.296C2582.52 251.979 2582.77 252.832 2582.77 253.856ZM2541.56 250.528C2545.23 250.528 2548.3 250.144 2550.77 249.376C2553.25 248.608 2556.24 247.2 2559.73 245.152C2560.08 243.701 2560.29 241.781 2560.37 239.392C2555.68 237.173 2551.8 236.064 2548.73 236.064C2545.23 236.064 2542.11 236.704 2539.38 237.984C2536.65 239.264 2535.29 241.525 2535.29 244.768C2535.29 246.389 2535.97 247.755 2537.33 248.864C2538.7 249.973 2540.11 250.528 2541.56 250.528ZM2590.26 214.944C2589.58 214.432 2589.02 213.92 2588.6 213.408C2588.17 212.811 2587.96 211.787 2587.96 210.336C2587.96 208.715 2588.51 207.477 2589.62 206.624C2590.81 205.685 2592.18 205.216 2593.72 205.216C2596.7 205.216 2599.26 205.984 2601.4 207.52C2603.61 209.056 2605.24 211.189 2606.26 213.92C2608.14 210.421 2610.53 208.032 2613.43 206.752C2616.33 205.387 2620.34 204.704 2625.46 204.704C2627.51 204.704 2629.6 205.344 2631.73 206.624C2633.95 207.819 2635.96 209.312 2637.75 211.104C2639.2 212.981 2640.44 215.328 2641.46 218.144C2642.48 220.875 2643 223.349 2643 225.568C2643 226.848 2642.91 228.939 2642.74 231.84C2642.57 234.912 2642.48 237.344 2642.48 239.136C2642.48 245.109 2643.64 248.779 2645.94 250.144C2646.28 250.315 2646.92 250.528 2647.86 250.784C2648.8 251.04 2649.48 251.296 2649.91 251.552C2650.42 251.808 2650.68 252.192 2650.68 252.704C2650.76 254.752 2649.99 256.459 2648.37 257.824C2646.84 259.104 2644.96 259.744 2642.74 259.744C2639.41 259.744 2636.81 258.848 2634.93 257.056C2633.05 255.264 2631.73 252.533 2630.96 248.864C2630.54 247.499 2630.32 245.493 2630.32 242.848C2630.32 241.397 2630.41 239.051 2630.58 235.808C2630.84 233.248 2630.96 230.517 2630.96 227.616C2630.96 224.629 2630.11 222.027 2628.4 219.808C2626.7 217.504 2624.35 216.352 2621.36 216.352C2619.57 216.352 2617.69 216.907 2615.73 218.016C2613.77 219.04 2612.4 220.32 2611.64 221.856C2610.36 224.501 2609.5 227.189 2609.08 229.92C2608.05 235.211 2607.54 240.288 2607.54 245.152C2607.54 246.347 2607.63 248.651 2607.8 252.064C2607.8 252.32 2607.8 252.96 2607.8 253.984C2607.8 254.923 2607.67 255.819 2607.41 256.672C2607.24 257.525 2606.9 258.293 2606.39 258.976C2606.05 259.317 2605.41 259.659 2604.47 260C2603.53 260.341 2602.72 260.512 2602.04 260.512C2600.84 260.512 2599.35 260 2597.56 258.976C2595.76 257.952 2594.7 256.8 2594.36 255.52L2594.23 253.728C2594.23 253.045 2594.31 252.021 2594.48 250.656C2595.51 244.683 2596.02 239.477 2596.02 235.04C2596.02 233.077 2595.98 231.584 2595.89 230.56L2595.76 224.672C2595.76 222.88 2595.25 221.173 2594.23 219.552C2593.2 217.845 2591.88 216.309 2590.26 214.944Z" fill="black"/>
</g>
<defs>
<clipPath id="clip0_1_2">
<rect width="2695" height="345" fill="white"/>
</clipPath>
</defs>
</svg>
