<?xml version="1.0" standalone="no"?>
<!DOCTYPE svg PUBLIC "-//W3C//DTD SVG 20010904//EN"
 "http://www.w3.org/TR/2001/REC-SVG-20010904/DTD/svg10.dtd">
<svg version="1.0" xmlns="http://www.w3.org/2000/svg"
 width="1084.000000pt" height="230.000000pt" viewBox="0 0 1084.000000 230.000000"
 preserveAspectRatio="xMidYMid meet">

<g transform="translate(0.000000,230.000000) scale(0.100000,-0.100000)"
fill="#000000" stroke="none">
<path d="M1030 2229 c-25 -5 -76 -24 -115 -43 -64 -32 -106 -71 -476 -443
-379 -380 -407 -411 -420 -458 -11 -40 -14 -152 -14 -550 0 -466 1 -503 19
-549 25 -65 79 -124 141 -152 l50 -24 910 0 c863 0 912 1 951 19 59 27 109 75
138 133 l26 52 0 525 0 526 -24 50 c-19 39 -111 136 -427 451 -364 360 -410
403 -465 427 -101 44 -193 56 -294 36z m221 -198 c32 -16 163 -140 430 -407
l384 -384 3 -480 c2 -407 0 -485 -12 -515 -24 -58 -55 -65 -276 -65 l-190 0 0
204 c0 112 -5 227 -10 257 -17 88 -63 174 -129 240 -255 255 -684 135 -776
-216 -11 -44 -15 -113 -15 -272 l0 -213 -197 0 c-180 0 -201 2 -231 20 -18 11
-37 32 -43 46 -6 17 -9 204 -7 511 l3 483 395 394 c440 438 426 428 555 423
50 -2 83 -9 116 -26z m5 -1224 c56 -28 92 -66 127 -131 20 -38 22 -57 25 -268
l3 -228 -285 0 -286 0 0 213 c0 256 7 285 85 363 64 65 117 85 210 80 51 -2
84 -10 121 -29z"/>
<path d="M3057 1870 c-92 -23 -180 -90 -220 -165 -32 -62 -30 -164 6 -237 46
-95 108 -134 281 -177 127 -32 178 -58 207 -105 37 -61 15 -121 -56 -156 -40
-19 -58 -22 -128 -18 -101 6 -143 25 -217 103 l-54 58 -53 -59 c-29 -32 -53
-64 -53 -69 0 -20 105 -114 155 -139 81 -40 135 -49 258 -44 129 6 180 23 248
85 60 54 89 121 89 208 -1 155 -92 241 -318 296 -160 40 -212 77 -212 151 0
78 97 137 203 125 59 -8 140 -51 177 -95 l27 -33 57 51 c31 29 56 57 56 63 0
25 -108 115 -166 137 -66 25 -222 36 -287 20z"/>
<path d="M9633 1869 c-246 -41 -423 -252 -423 -504 0 -190 102 -362 267 -448
91 -47 158 -60 284 -56 95 4 112 8 175 39 161 79 244 217 244 408 l0 82 -225
0 -225 0 0 -80 0 -80 135 0 c129 0 135 -1 135 -20 0 -51 -59 -128 -125 -163
-33 -18 -57 -22 -135 -22 -84 0 -102 3 -151 28 -67 32 -142 109 -172 175 -18
38 -22 66 -22 142 0 84 3 102 28 152 57 116 174 188 307 188 82 0 148 -22 219
-74 l50 -35 55 57 55 57 -31 32 c-44 45 -156 101 -235 118 -75 16 -131 17
-210 4z"/>
<path d="M3710 1785 l0 -75 85 0 85 0 -2 -342 -3 -343 -82 -3 -83 -3 0 -74 0
-75 255 0 255 0 0 75 0 74 -82 3 -83 3 -3 343 -2 342 85 0 85 0 0 75 0 75
-255 0 -255 0 0 -75z"/>
<path d="M4470 1365 l0 -495 85 0 85 0 2 183 3 182 160 5 c180 6 207 13 277
79 160 147 127 415 -64 510 l-61 31 -244 0 -243 0 0 -495z m467 315 c67 -40
88 -143 44 -213 -36 -59 -62 -67 -211 -67 l-130 0 0 143 c0 79 3 147 7 150 3
4 63 7 132 7 107 0 131 -3 158 -20z"/>
<path d="M5360 1785 l0 -75 85 0 85 0 -2 -342 -3 -343 -82 -3 -83 -3 0 -74 0
-75 255 0 255 0 0 75 0 74 -82 3 -83 3 -3 343 -2 342 85 0 85 0 0 75 0 75
-255 0 -255 0 0 -75z"/>
<path d="M6120 1365 l0 -495 85 0 85 0 2 183 3 182 100 0 100 0 103 -182 103
-183 104 0 104 0 -109 189 c-61 105 -110 194 -110 200 0 6 13 17 28 25 43 22
100 85 127 140 20 40 25 65 25 126 0 66 -4 86 -31 138 -35 72 -94 124 -169
153 -45 17 -78 19 -300 19 l-250 0 0 -495z m444 335 c45 -10 81 -34 110 -73
27 -37 28 -120 1 -166 -36 -61 -70 -71 -237 -71 l-148 0 0 153 c0 85 3 157 7
160 10 10 222 8 267 -3z"/>
<path d="M7397 1848 c-137 -348 -371 -948 -374 -961 -5 -16 2 -18 82 -15 l88
3 41 110 42 110 205 3 206 2 44 -115 43 -115 92 0 91 0 -191 495 -191 494 -86
1 c-60 0 -88 -4 -92 -12z m124 -295 c26 -82 72 -205 104 -285 7 -17 -4 -18
-139 -18 -80 0 -146 3 -146 8 0 4 20 59 44 122 23 63 53 147 66 185 23 72 29
85 35 85 2 0 18 -44 36 -97z"/>
<path d="M8130 1365 l0 -495 88 0 87 0 -6 327 c-3 181 -9 340 -14 356 -4 15
-3 27 2 27 5 0 130 -160 278 -355 l269 -355 83 0 83 0 0 495 0 495 -90 0 -90
0 0 -177 c0 -98 5 -259 10 -357 5 -99 8 -182 5 -184 -2 -2 -125 158 -272 357
l-268 360 -82 1 -83 0 0 -495z"/>
<path d="M2762 357 c-23 -25 -28 -66 -12 -97 6 -10 34 -25 65 -34 62 -19 85
-45 59 -70 -22 -23 -76 -20 -103 5 -18 17 -25 18 -37 8 -13 -10 -12 -14 2 -30
38 -42 133 -48 167 -11 45 50 19 113 -56 133 -51 13 -67 25 -67 50 0 29 42 45
80 29 16 -7 30 -17 30 -23 0 -6 8 -3 18 7 16 16 16 18 -7 37 -35 28 -111 26
-139 -4z"/>
<path d="M2990 360 c0 -13 7 -20 20 -20 19 0 20 -7 20 -100 0 -93 -1 -100 -20
-100 -11 0 -20 -7 -20 -15 0 -12 14 -15 65 -15 51 0 65 3 65 15 0 8 -9 15 -20
15 -19 0 -20 7 -20 100 0 93 1 100 20 100 13 0 20 7 20 20 0 18 -7 20 -65 20
-58 0 -65 -2 -65 -20z"/>
<path d="M3223 362 c-28 -22 -37 -60 -20 -92 8 -17 31 -31 72 -45 48 -16 61
-25 63 -44 2 -13 -2 -28 -10 -32 -23 -15 -75 -10 -101 11 -21 17 -27 17 -36 6
-26 -31 50 -71 115 -61 46 6 69 26 79 66 9 36 -27 73 -92 94 -60 19 -74 42
-43 67 29 23 51 23 83 -2 23 -18 26 -18 38 -4 35 43 -98 75 -148 36z"/>
<path d="M3430 360 c0 -17 7 -20 40 -20 l40 0 0 -115 c0 -108 1 -115 20 -115
19 0 20 7 20 115 l0 115 45 0 c38 0 45 3 45 20 0 19 -7 20 -105 20 -98 0 -105
-1 -105 -20z"/>
<path d="M3700 245 l0 -135 85 0 c69 0 85 3 85 15 0 12 -14 15 -65 15 l-65 0
0 45 0 45 55 0 c41 0 55 4 55 14 0 11 -15 16 -52 18 l-53 3 -3 38 -3 37 65 0
c59 0 66 2 66 20 0 18 -7 20 -85 20 l-85 0 0 -135z"/>
<path d="M3950 246 c0 -128 1 -136 20 -136 18 0 20 8 22 98 l3 97 38 -62 c21
-35 43 -63 48 -63 5 0 25 25 45 55 20 30 41 55 45 55 5 0 6 -40 2 -90 -6 -87
-5 -90 15 -90 20 0 21 6 24 135 3 129 2 135 -17 135 -14 0 -32 -21 -60 -67
-22 -37 -45 -68 -50 -69 -6 -2 -28 27 -51 64 -27 45 -48 68 -62 70 -22 3 -22
1 -22 -132z"/>
<path d="M4410 360 c0 -15 7 -20 25 -20 l25 0 0 -100 0 -100 -25 0 c-16 0 -25
-6 -25 -15 0 -12 14 -15 70 -15 56 0 70 3 70 15 0 9 -9 15 -25 15 l-25 0 0
100 0 100 25 0 c18 0 25 5 25 20 0 18 -7 20 -70 20 -63 0 -70 -2 -70 -20z"/>
<path d="M4621 245 l-2 -135 27 0 27 0 -6 95 c-4 52 -3 95 1 95 4 0 39 -43 77
-95 52 -70 76 -94 93 -95 22 0 22 2 22 135 0 128 -1 135 -20 135 -18 0 -20 -8
-22 -102 l-3 -102 -75 102 c-54 73 -81 101 -96 102 -21 0 -22 -4 -23 -135z"/>
<path d="M4950 245 c0 -128 1 -135 20 -135 18 0 20 7 20 55 l0 55 60 0 c53 0
60 2 60 20 0 18 -7 20 -60 20 l-60 0 0 40 0 40 69 0 c64 0 70 2 68 20 -1 18
-8 20 -89 20 l-88 0 0 -135z"/>
<path d="M5232 360 c-42 -26 -66 -81 -59 -134 14 -106 131 -157 217 -96 38 27
53 70 48 132 -5 44 -11 57 -42 85 -30 28 -43 33 -83 33 -30 0 -60 -7 -81 -20z
m142 -51 c56 -66 11 -169 -74 -169 -26 0 -77 45 -84 76 -9 34 10 90 37 109 12
8 38 15 58 15 29 0 43 -7 63 -31z"/>
<path d="M5510 246 c0 -129 1 -136 20 -136 17 0 20 7 20 50 0 50 0 50 33 50
28 0 35 -6 60 -50 22 -39 34 -50 53 -50 l24 0 -27 49 -28 49 24 25 c30 33 31
91 2 121 -17 17 -36 22 -101 24 l-80 4 0 -136z m149 80 c7 -8 11 -27 9 -43 -3
-27 -6 -28 -60 -31 l-58 -3 0 46 0 45 49 0 c30 0 53 -5 60 -14z"/>
<path d="M5790 245 c0 -128 1 -135 20 -135 19 0 20 7 20 90 0 50 4 90 9 90 5
0 24 -25 42 -55 18 -30 38 -55 44 -55 5 0 28 28 50 63 l40 62 3 -97 c2 -90 4
-98 22 -98 19 0 20 8 20 136 0 133 0 135 -22 132 -14 -2 -35 -25 -62 -70 -23
-37 -45 -66 -51 -64 -5 1 -28 33 -50 69 -30 51 -45 67 -62 67 -23 0 -23 -2
-23 -135z"/>
<path d="M6177 263 c-25 -65 -49 -126 -53 -136 -12 -32 32 -20 46 13 12 29 15
30 72 30 57 0 60 -1 71 -30 8 -21 18 -30 34 -30 l23 0 -21 53 c-12 28 -35 89
-52 135 -26 67 -36 82 -53 82 -17 0 -28 -20 -67 -117z m87 10 c9 -26 16 -50
16 -55 0 -4 -18 -8 -41 -8 -31 0 -40 3 -36 14 3 8 11 32 18 55 7 23 16 41 20
41 4 0 14 -21 23 -47z"/>
<path d="M6445 355 c-50 -50 -23 -105 65 -133 57 -18 73 -39 50 -67 -18 -21
-73 -18 -103 5 -22 17 -26 18 -37 5 -31 -37 62 -77 130 -56 45 13 63 38 58 84
-3 33 -23 48 -105 77 -39 14 -49 37 -27 61 21 23 52 24 82 3 19 -13 26 -13 38
-3 14 11 13 15 -8 31 -36 28 -113 24 -143 -7z"/>
<path d="M6670 360 c0 -15 7 -20 25 -20 l25 0 0 -100 0 -100 -25 0 c-16 0 -25
-6 -25 -15 0 -12 14 -15 70 -15 56 0 70 3 70 15 0 9 -9 15 -25 15 l-25 0 0
100 0 100 25 0 c18 0 25 5 25 20 0 18 -7 20 -70 20 -63 0 -70 -2 -70 -20z"/>
<path d="M7000 245 l0 -135 25 0 c23 0 25 3 25 50 l0 50 48 0 c50 1 72 12 90
47 19 35 14 63 -17 94 -27 27 -35 29 -100 29 l-71 0 0 -135z m144 79 c19 -18
20 -28 6 -55 -8 -14 -21 -19 -55 -19 l-45 0 0 45 0 45 39 0 c23 0 46 -7 55
-16z"/>
<path d="M7260 360 c0 -13 7 -20 20 -20 19 0 20 -7 20 -100 0 -93 -1 -100 -20
-100 -11 0 -20 -7 -20 -15 0 -12 14 -15 65 -15 50 0 65 3 65 14 0 8 -10 16
-22 18 -22 3 -23 8 -26 101 l-3 97 26 0 c18 0 25 5 25 20 0 18 -7 20 -65 20
-58 0 -65 -2 -65 -20z"/>
<path d="M7470 245 c0 -130 1 -135 21 -135 19 0 20 5 17 95 -2 52 0 95 3 95 4
0 39 -43 79 -95 52 -68 79 -95 94 -95 21 0 21 4 21 135 l0 135 -24 0 -24 0 7
-100 c3 -55 3 -100 -1 -100 -5 1 -41 46 -82 100 -48 66 -80 100 -92 100 -18 0
-19 -9 -19 -135z"/>
<path d="M7850 360 c0 -15 7 -20 25 -20 25 0 25 -1 25 -83 0 -69 -3 -87 -18
-100 -23 -21 -36 -21 -66 -2 -20 14 -25 14 -35 1 -11 -13 -7 -19 21 -36 44
-27 70 -25 107 6 31 25 31 27 31 120 0 91 1 94 23 94 16 0 23 6 23 20 0 18 -7
20 -68 20 -61 0 -68 -2 -68 -20z"/>
<path d="M8055 258 c-26 -68 -50 -129 -52 -136 -3 -7 3 -12 15 -12 12 0 24 11
32 30 12 29 15 30 72 30 57 0 60 -1 71 -30 8 -21 18 -30 33 -30 21 0 20 5 -30
135 -68 180 -75 181 -141 13z m89 15 c9 -26 16 -50 16 -55 0 -4 -18 -8 -41 -8
-31 0 -40 3 -36 14 3 8 11 32 18 55 7 23 16 41 20 41 4 0 14 -21 23 -47z"/>
<path d="M8310 245 c0 -127 1 -135 20 -135 18 0 20 8 22 93 l3 92 38 -57 c21
-32 41 -58 46 -58 5 0 27 28 50 63 l41 62 0 -97 c0 -91 1 -98 20 -98 19 0 20
7 20 135 0 122 -2 135 -18 135 -11 0 -33 -26 -61 -70 -23 -38 -46 -70 -49 -70
-4 0 -26 32 -50 70 -30 48 -49 70 -63 70 -18 0 -19 -8 -19 -135z"/>
<path d="M8780 245 c0 -128 1 -135 20 -135 17 0 20 7 20 51 l0 50 32 -3 c26
-2 37 -12 58 -48 19 -33 33 -46 53 -48 l27 -3 -30 50 -29 51 24 24 c25 25 32
66 19 101 -11 28 -60 45 -129 45 l-65 0 0 -135z m148 83 c7 -7 12 -21 12 -33
0 -33 -20 -45 -72 -45 l-48 0 0 45 0 45 48 0 c26 0 53 -5 60 -12z"/>
<path d="M9060 273 c1 -121 6 -134 64 -158 52 -22 110 -6 136 38 16 26 20 50
20 130 0 90 -1 97 -20 97 -19 0 -20 -7 -20 -95 0 -88 -2 -98 -25 -120 -30 -30
-54 -31 -89 -4 -25 20 -26 24 -26 120 0 92 -1 99 -20 99 -19 0 -20 -7 -20
-107z"/>
<path d="M9381 249 c-28 -72 -51 -132 -51 -135 0 -2 9 -4 19 -4 12 0 23 11 30
30 10 29 12 30 71 30 59 0 61 -1 71 -30 8 -21 17 -30 34 -30 22 0 21 3 -29
135 -44 115 -54 135 -73 135 -18 0 -29 -19 -72 -131z m94 20 c9 -28 15 -52 14
-54 -10 -9 -74 -9 -74 0 0 22 28 105 35 105 5 0 16 -23 25 -51z"/>
<path d="M9640 245 c0 -131 1 -135 21 -135 21 0 21 4 17 95 -2 52 -1 95 3 95
4 0 39 -43 78 -95 48 -64 78 -95 91 -95 19 0 20 7 20 135 0 131 -1 135 -21
135 -21 0 -21 -4 -17 -100 2 -55 1 -100 -2 -100 -3 0 -39 45 -80 100 -103 139
-110 137 -110 -35z"/>
<path d="M10012 363 c-64 -31 -91 -127 -52 -190 67 -110 222 -88 246 35 l7 32
-62 0 c-48 0 -61 -3 -61 -15 0 -10 11 -15 35 -15 28 0 35 -4 35 -20 0 -30 -44
-54 -86 -47 -44 7 -63 23 -81 65 -17 41 -3 94 30 117 25 18 98 20 114 4 13
-13 43 -5 43 10 0 17 -57 41 -97 41 -21 0 -53 -8 -71 -17z"/>
<path d="M10313 298 c-17 -46 -40 -107 -52 -135 l-21 -53 21 0 c14 0 24 10 32
30 11 29 14 30 73 30 60 0 62 -1 73 -30 7 -21 17 -30 32 -30 13 0 19 5 16 13
-97 252 -100 257 -121 257 -18 0 -27 -15 -53 -82z m79 -35 c10 -26 16 -48 15
-48 -7 -6 -76 -13 -80 -8 -5 4 4 34 28 102 7 19 16 8 37 -46z"/>
<path d="M10550 245 c0 -128 1 -135 20 -135 18 0 20 8 22 98 l3 97 75 -97 c56
-73 81 -98 98 -98 22 0 22 2 22 135 0 128 -1 135 -20 135 -19 0 -20 -7 -20
-100 0 -55 -3 -100 -7 -99 -5 0 -41 45 -80 100 -51 68 -79 99 -93 99 -19 0
-20 -6 -20 -135z"/>
</g>
</svg>
